<svg xmlns="http://www.w3.org/2000/svg" xmlns:xlink="http://www.w3.org/1999/xlink" width="600" height="400" viewBox="0 0 2400 1600">
<defs>
  <clipPath id="clip230">
    <rect x="0" y="0" width="2400" height="1600"></rect>
  </clipPath>
</defs>
<path clip-path="url(#clip230)" d="M0 1600 L2400 1600 L2400 0 L0 0  Z" fill="#ffffff" fill-rule="evenodd" fill-opacity="1"></path>
<defs>
  <clipPath id="clip231">
    <rect x="480" y="0" width="1681" height="1600"></rect>
  </clipPath>
</defs>
<path clip-path="url(#clip230)" d="M232.499 1397.26 L2352.76 1397.26 L2352.76 47.2441 L232.499 47.2441  Z" fill="#ffffff" fill-rule="evenodd" fill-opacity="1"></path>
<defs>
  <clipPath id="clip232">
    <rect x="232" y="47" width="2121" height="1351"></rect>
  </clipPath>
</defs>
<polyline clip-path="url(#clip232)" style="stroke:#000000; stroke-linecap:round; stroke-linejoin:round; stroke-width:2; stroke-opacity:0.1; fill:none" points="292.507,1397.26 292.507,47.2441 "></polyline>
<polyline clip-path="url(#clip232)" style="stroke:#000000; stroke-linecap:round; stroke-linejoin:round; stroke-width:2; stroke-opacity:0.1; fill:none" points="792.567,1397.26 792.567,47.2441 "></polyline>
<polyline clip-path="url(#clip232)" style="stroke:#000000; stroke-linecap:round; stroke-linejoin:round; stroke-width:2; stroke-opacity:0.1; fill:none" points="1292.63,1397.26 1292.63,47.2441 "></polyline>
<polyline clip-path="url(#clip232)" style="stroke:#000000; stroke-linecap:round; stroke-linejoin:round; stroke-width:2; stroke-opacity:0.1; fill:none" points="1792.69,1397.26 1792.69,47.2441 "></polyline>
<polyline clip-path="url(#clip232)" style="stroke:#000000; stroke-linecap:round; stroke-linejoin:round; stroke-width:2; stroke-opacity:0.1; fill:none" points="2292.75,1397.26 2292.75,47.2441 "></polyline>
<polyline clip-path="url(#clip230)" style="stroke:#000000; stroke-linecap:round; stroke-linejoin:round; stroke-width:4; stroke-opacity:1; fill:none" points="232.499,1397.26 2352.76,1397.26 "></polyline>
<polyline clip-path="url(#clip230)" style="stroke:#000000; stroke-linecap:round; stroke-linejoin:round; stroke-width:4; stroke-opacity:1; fill:none" points="292.507,1397.26 292.507,1378.36 "></polyline>
<polyline clip-path="url(#clip230)" style="stroke:#000000; stroke-linecap:round; stroke-linejoin:round; stroke-width:4; stroke-opacity:1; fill:none" points="792.567,1397.26 792.567,1378.36 "></polyline>
<polyline clip-path="url(#clip230)" style="stroke:#000000; stroke-linecap:round; stroke-linejoin:round; stroke-width:4; stroke-opacity:1; fill:none" points="1292.63,1397.26 1292.63,1378.36 "></polyline>
<polyline clip-path="url(#clip230)" style="stroke:#000000; stroke-linecap:round; stroke-linejoin:round; stroke-width:4; stroke-opacity:1; fill:none" points="1792.69,1397.26 1792.69,1378.36 "></polyline>
<polyline clip-path="url(#clip230)" style="stroke:#000000; stroke-linecap:round; stroke-linejoin:round; stroke-width:4; stroke-opacity:1; fill:none" points="2292.75,1397.26 2292.75,1378.36 "></polyline>
<path clip-path="url(#clip230)" d="M292.507 1431.11 Q287.993 1431.11 285.707 1435.56 Q283.45 1439.99 283.45 1448.9 Q283.45 1457.79 285.707 1462.24 Q287.993 1466.67 292.507 1466.67 Q297.049 1466.67 299.306 1462.24 Q301.592 1457.79 301.592 1448.9 Q301.592 1439.99 299.306 1435.56 Q297.049 1431.11 292.507 1431.11 M292.507 1426.48 Q299.769 1426.48 303.589 1432.24 Q307.437 1437.97 307.437 1448.9 Q307.437 1459.81 303.589 1465.57 Q299.769 1471.3 292.507 1471.3 Q285.244 1471.3 281.396 1465.57 Q277.576 1459.81 277.576 1448.9 Q277.576 1437.97 281.396 1432.24 Q285.244 1426.48 292.507 1426.48 Z" fill="#000000" fill-rule="nonzero" fill-opacity="1"></path><path clip-path="url(#clip230)" d="M785.883 1465.54 L806.282 1465.54 L806.282 1470.46 L778.852 1470.46 L778.852 1465.54 Q782.179 1462.1 787.909 1456.31 Q793.667 1450.49 795.142 1448.82 Q797.949 1445.66 799.049 1443.49 Q800.177 1441.29 800.177 1439.18 Q800.177 1435.74 797.746 1433.57 Q795.345 1431.4 791.468 1431.4 Q788.719 1431.4 785.652 1432.35 Q782.613 1433.31 779.141 1435.25 L779.141 1429.34 Q782.671 1427.93 785.738 1427.2 Q788.806 1426.48 791.352 1426.48 Q798.065 1426.48 802.058 1429.84 Q806.051 1433.19 806.051 1438.8 Q806.051 1441.47 805.038 1443.87 Q804.054 1446.24 801.421 1449.48 Q800.698 1450.32 796.821 1454.34 Q792.943 1458.34 785.883 1465.54 Z" fill="#000000" fill-rule="nonzero" fill-opacity="1"></path><path clip-path="url(#clip230)" d="M1296.39 1432.35 L1281.63 1455.41 L1296.39 1455.41 L1296.39 1432.35 M1294.86 1427.26 L1302.21 1427.26 L1302.21 1455.41 L1308.37 1455.41 L1308.37 1460.27 L1302.21 1460.27 L1302.21 1470.46 L1296.39 1470.46 L1296.39 1460.27 L1276.89 1460.27 L1276.89 1454.63 L1294.86 1427.26 Z" fill="#000000" fill-rule="nonzero" fill-opacity="1"></path><path clip-path="url(#clip230)" d="M1793.19 1446.53 Q1789.26 1446.53 1786.94 1449.22 Q1784.66 1451.91 1784.66 1456.6 Q1784.66 1461.26 1786.94 1463.98 Q1789.26 1466.67 1793.19 1466.67 Q1797.13 1466.67 1799.42 1463.98 Q1801.73 1461.26 1801.73 1456.6 Q1801.73 1451.91 1799.42 1449.22 Q1797.13 1446.53 1793.19 1446.53 M1804.8 1428.21 L1804.8 1433.54 Q1802.6 1432.5 1800.34 1431.95 Q1798.11 1431.4 1795.91 1431.4 Q1790.13 1431.4 1787.06 1435.3 Q1784.02 1439.21 1783.59 1447.11 Q1785.3 1444.59 1787.87 1443.26 Q1790.45 1441.9 1793.54 1441.9 Q1800.05 1441.9 1803.81 1445.87 Q1807.6 1449.8 1807.6 1456.6 Q1807.6 1463.26 1803.67 1467.28 Q1799.73 1471.3 1793.19 1471.3 Q1785.7 1471.3 1781.74 1465.57 Q1777.77 1459.81 1777.77 1448.9 Q1777.77 1438.66 1782.63 1432.58 Q1787.49 1426.48 1795.68 1426.48 Q1797.88 1426.48 1800.11 1426.91 Q1802.37 1427.35 1804.8 1428.21 Z" fill="#000000" fill-rule="nonzero" fill-opacity="1"></path><path clip-path="url(#clip230)" d="M2292.75 1449.94 Q2288.58 1449.94 2286.18 1452.17 Q2283.81 1454.4 2283.81 1458.31 Q2283.81 1462.21 2286.18 1464.44 Q2288.58 1466.67 2292.75 1466.67 Q2296.92 1466.67 2299.32 1464.44 Q2301.72 1462.18 2301.72 1458.31 Q2301.72 1454.4 2299.32 1452.17 Q2296.94 1449.94 2292.75 1449.94 M2286.9 1447.46 Q2283.14 1446.53 2281.03 1443.96 Q2278.95 1441.38 2278.95 1437.68 Q2278.95 1432.5 2282.62 1429.49 Q2286.33 1426.48 2292.75 1426.48 Q2299.2 1426.48 2302.88 1429.49 Q2306.55 1432.5 2306.55 1437.68 Q2306.55 1441.38 2304.44 1443.96 Q2302.36 1446.53 2298.62 1447.46 Q2302.85 1448.44 2305.19 1451.3 Q2307.56 1454.17 2307.56 1458.31 Q2307.56 1464.59 2303.72 1467.94 Q2299.9 1471.3 2292.75 1471.3 Q2285.6 1471.3 2281.75 1467.94 Q2277.93 1464.59 2277.93 1458.31 Q2277.93 1454.17 2280.31 1451.3 Q2282.68 1448.44 2286.9 1447.46 M2284.76 1438.23 Q2284.76 1441.58 2286.85 1443.46 Q2288.96 1445.34 2292.75 1445.34 Q2296.51 1445.34 2298.62 1443.46 Q2300.76 1441.58 2300.76 1438.23 Q2300.76 1434.87 2298.62 1432.99 Q2296.51 1431.11 2292.75 1431.11 Q2288.96 1431.11 2286.85 1432.99 Q2284.76 1434.87 2284.76 1438.23 Z" fill="#000000" fill-rule="nonzero" fill-opacity="1"></path><path clip-path="url(#clip230)" d="M1139.16 1513.41 L1139.16 1527.21 L1155.61 1527.21 L1155.61 1533.42 L1139.16 1533.42 L1139.16 1559.8 Q1139.16 1565.75 1140.76 1567.44 Q1142.41 1569.14 1147.4 1569.14 L1155.61 1569.14 L1155.61 1575.82 L1147.4 1575.82 Q1138.16 1575.82 1134.64 1572.39 Q1131.13 1568.92 1131.13 1559.8 L1131.13 1533.42 L1125.27 1533.42 L1125.27 1527.21 L1131.13 1527.21 L1131.13 1513.41 L1139.16 1513.41 Z" fill="#000000" fill-rule="nonzero" fill-opacity="1"></path><path clip-path="url(#clip230)" d="M1166.11 1527.21 L1174.1 1527.21 L1174.1 1575.82 L1166.11 1575.82 L1166.11 1527.21 M1166.11 1508.29 L1174.1 1508.29 L1174.1 1518.4 L1166.11 1518.4 L1166.11 1508.29 Z" fill="#000000" fill-rule="nonzero" fill-opacity="1"></path><path clip-path="url(#clip230)" d="M1228.65 1536.54 Q1231.65 1531.16 1235.81 1528.6 Q1239.98 1526.04 1245.62 1526.04 Q1253.22 1526.04 1257.34 1531.38 Q1261.46 1536.67 1261.46 1546.48 L1261.46 1575.82 L1253.44 1575.82 L1253.44 1546.74 Q1253.44 1539.75 1250.96 1536.37 Q1248.49 1532.98 1243.41 1532.98 Q1237.2 1532.98 1233.6 1537.1 Q1230 1541.23 1230 1548.35 L1230 1575.82 L1221.97 1575.82 L1221.97 1546.74 Q1221.97 1539.71 1219.49 1536.37 Q1217.02 1532.98 1211.86 1532.98 Q1205.74 1532.98 1202.13 1537.15 Q1198.53 1541.27 1198.53 1548.35 L1198.53 1575.82 L1190.5 1575.82 L1190.5 1527.21 L1198.53 1527.21 L1198.53 1534.76 Q1201.27 1530.29 1205.08 1528.16 Q1208.9 1526.04 1214.16 1526.04 Q1219.45 1526.04 1223.14 1528.73 Q1226.87 1531.42 1228.65 1536.54 Z" fill="#000000" fill-rule="nonzero" fill-opacity="1"></path><path clip-path="url(#clip230)" d="M1318.97 1549.52 L1318.97 1553.42 L1282.25 1553.42 Q1282.78 1561.67 1287.2 1566.01 Q1291.67 1570.31 1299.62 1570.31 Q1304.22 1570.31 1308.51 1569.18 Q1312.85 1568.05 1317.11 1565.79 L1317.11 1573.35 Q1312.81 1575.17 1308.3 1576.12 Q1303.78 1577.08 1299.14 1577.08 Q1287.51 1577.08 1280.69 1570.31 Q1273.92 1563.54 1273.92 1551.99 Q1273.92 1540.06 1280.34 1533.07 Q1286.81 1526.04 1297.75 1526.04 Q1307.56 1526.04 1313.24 1532.37 Q1318.97 1538.67 1318.97 1549.52 M1310.99 1547.17 Q1310.9 1540.62 1307.3 1536.71 Q1303.74 1532.81 1297.84 1532.81 Q1291.15 1532.81 1287.12 1536.58 Q1283.12 1540.36 1282.51 1547.22 L1310.99 1547.17 Z" fill="#000000" fill-rule="nonzero" fill-opacity="1"></path><path clip-path="url(#clip230)" d="M1379.52 1508.37 Q1373.7 1518.35 1370.88 1528.12 Q1368.06 1537.89 1368.06 1547.91 Q1368.06 1557.94 1370.88 1567.79 Q1373.75 1577.6 1379.52 1587.54 L1372.58 1587.54 Q1366.06 1577.34 1362.81 1567.49 Q1359.6 1557.63 1359.6 1547.91 Q1359.6 1538.23 1362.81 1528.42 Q1366.02 1518.62 1372.58 1508.37 L1379.52 1508.37 Z" fill="#000000" fill-rule="nonzero" fill-opacity="1"></path><path clip-path="url(#clip230)" d="M1426 1528.64 L1426 1536.19 Q1422.62 1534.46 1418.97 1533.59 Q1415.33 1532.72 1411.42 1532.72 Q1405.47 1532.72 1402.48 1534.54 Q1399.53 1536.37 1399.53 1540.01 Q1399.53 1542.79 1401.65 1544.4 Q1403.78 1545.96 1410.21 1547.39 L1412.94 1548 Q1421.45 1549.82 1425.01 1553.16 Q1428.61 1556.46 1428.61 1562.41 Q1428.61 1569.18 1423.23 1573.13 Q1417.89 1577.08 1408.51 1577.08 Q1404.61 1577.08 1400.35 1576.3 Q1396.14 1575.56 1391.46 1574.04 L1391.46 1565.79 Q1395.88 1568.09 1400.18 1569.27 Q1404.48 1570.39 1408.69 1570.39 Q1414.33 1570.39 1417.37 1568.48 Q1420.4 1566.53 1420.4 1563.02 Q1420.4 1559.76 1418.19 1558.02 Q1416.02 1556.29 1408.6 1554.68 L1405.82 1554.03 Q1398.4 1552.47 1395.1 1549.26 Q1391.8 1546 1391.8 1540.36 Q1391.8 1533.5 1396.66 1529.77 Q1401.52 1526.04 1410.47 1526.04 Q1414.89 1526.04 1418.8 1526.69 Q1422.71 1527.34 1426 1528.64 Z" fill="#000000" fill-rule="nonzero" fill-opacity="1"></path><path clip-path="url(#clip230)" d="M1440.07 1508.37 L1447.01 1508.37 Q1453.52 1518.62 1456.73 1528.42 Q1459.99 1538.23 1459.99 1547.91 Q1459.99 1557.63 1456.73 1567.49 Q1453.52 1577.34 1447.01 1587.54 L1440.07 1587.54 Q1445.84 1577.6 1448.66 1567.79 Q1451.52 1557.94 1451.52 1547.91 Q1451.52 1537.89 1448.66 1528.12 Q1445.84 1518.35 1440.07 1508.37 Z" fill="#000000" fill-rule="nonzero" fill-opacity="1"></path><polyline clip-path="url(#clip232)" style="stroke:#000000; stroke-linecap:round; stroke-linejoin:round; stroke-width:2; stroke-opacity:0.1; fill:none" points="232.499,1359.05 2352.76,1359.05 "></polyline>
<polyline clip-path="url(#clip232)" style="stroke:#000000; stroke-linecap:round; stroke-linejoin:round; stroke-width:2; stroke-opacity:0.1; fill:none" points="232.499,934.25 2352.76,934.25 "></polyline>
<polyline clip-path="url(#clip232)" style="stroke:#000000; stroke-linecap:round; stroke-linejoin:round; stroke-width:2; stroke-opacity:0.1; fill:none" points="232.499,509.448 2352.76,509.448 "></polyline>
<polyline clip-path="url(#clip232)" style="stroke:#000000; stroke-linecap:round; stroke-linejoin:round; stroke-width:2; stroke-opacity:0.1; fill:none" points="232.499,84.6456 2352.76,84.6456 "></polyline>
<polyline clip-path="url(#clip230)" style="stroke:#000000; stroke-linecap:round; stroke-linejoin:round; stroke-width:4; stroke-opacity:1; fill:none" points="232.499,1397.26 232.499,47.2441 "></polyline>
<polyline clip-path="url(#clip230)" style="stroke:#000000; stroke-linecap:round; stroke-linejoin:round; stroke-width:4; stroke-opacity:1; fill:none" points="232.499,1359.05 251.397,1359.05 "></polyline>
<polyline clip-path="url(#clip230)" style="stroke:#000000; stroke-linecap:round; stroke-linejoin:round; stroke-width:4; stroke-opacity:1; fill:none" points="232.499,934.25 251.397,934.25 "></polyline>
<polyline clip-path="url(#clip230)" style="stroke:#000000; stroke-linecap:round; stroke-linejoin:round; stroke-width:4; stroke-opacity:1; fill:none" points="232.499,509.448 251.397,509.448 "></polyline>
<polyline clip-path="url(#clip230)" style="stroke:#000000; stroke-linecap:round; stroke-linejoin:round; stroke-width:4; stroke-opacity:1; fill:none" points="232.499,84.6456 251.397,84.6456 "></polyline>
<path clip-path="url(#clip230)" d="M132.379 1375.73 L141.928 1375.73 L141.928 1342.78 L131.54 1344.86 L131.54 1339.54 L141.87 1337.45 L147.715 1337.45 L147.715 1375.73 L157.263 1375.73 L157.263 1380.65 L132.379 1380.65 L132.379 1375.73 Z" fill="#000000" fill-rule="nonzero" fill-opacity="1"></path><path clip-path="url(#clip230)" d="M181.569 1341.3 Q177.055 1341.3 174.769 1345.76 Q172.512 1350.18 172.512 1359.1 Q172.512 1367.98 174.769 1372.43 Q177.055 1376.86 181.569 1376.86 Q186.112 1376.86 188.369 1372.43 Q190.654 1367.98 190.654 1359.1 Q190.654 1350.18 188.369 1345.76 Q186.112 1341.3 181.569 1341.3 M181.569 1336.67 Q188.832 1336.67 192.651 1342.43 Q196.499 1348.16 196.499 1359.1 Q196.499 1370 192.651 1375.76 Q188.832 1381.49 181.569 1381.49 Q174.306 1381.49 170.458 1375.76 Q166.638 1370 166.638 1359.1 Q166.638 1348.16 170.458 1342.43 Q174.306 1336.67 181.569 1336.67 Z" fill="#000000" fill-rule="nonzero" fill-opacity="1"></path><path clip-path="url(#clip230)" d="M133.913 950.931 L143.461 950.931 L143.461 917.974 L133.074 920.057 L133.074 914.733 L143.404 912.65 L149.248 912.65 L149.248 950.931 L158.797 950.931 L158.797 955.85 L133.913 955.85 L133.913 950.931 Z" fill="#000000" fill-rule="nonzero" fill-opacity="1"></path><path clip-path="url(#clip230)" d="M171.615 950.931 L181.164 950.931 L181.164 917.974 L170.776 920.057 L170.776 914.733 L181.106 912.65 L186.951 912.65 L186.951 950.931 L196.499 950.931 L196.499 955.85 L171.615 955.85 L171.615 950.931 Z" fill="#000000" fill-rule="nonzero" fill-opacity="1"></path><path clip-path="url(#clip230)" d="M134.376 526.129 L143.924 526.129 L143.924 493.172 L133.537 495.255 L133.537 489.931 L143.866 487.848 L149.711 487.848 L149.711 526.129 L159.26 526.129 L159.26 531.048 L134.376 531.048 L134.376 526.129 Z" fill="#000000" fill-rule="nonzero" fill-opacity="1"></path><path clip-path="url(#clip230)" d="M176.1 526.129 L196.499 526.129 L196.499 531.048 L169.069 531.048 L169.069 526.129 Q172.396 522.685 178.126 516.898 Q183.884 511.083 185.359 509.404 Q188.166 506.25 189.266 504.08 Q190.394 501.881 190.394 499.769 Q190.394 496.326 187.963 494.156 Q185.562 491.985 181.685 491.985 Q178.936 491.985 175.869 492.94 Q172.83 493.895 169.358 495.834 L169.358 489.931 Q172.888 488.513 175.955 487.79 Q179.023 487.066 181.569 487.066 Q188.282 487.066 192.275 490.423 Q196.268 493.779 196.268 499.393 Q196.268 502.055 195.255 504.456 Q194.271 506.829 191.638 510.07 Q190.915 510.909 187.038 514.931 Q183.16 518.924 176.1 526.129 Z" fill="#000000" fill-rule="nonzero" fill-opacity="1"></path><path clip-path="url(#clip230)" d="M133.189 101.327 L142.738 101.327 L142.738 68.3697 L132.35 70.453 L132.35 65.1289 L142.68 63.0456 L148.525 63.0456 L148.525 101.327 L158.074 101.327 L158.074 106.246 L133.189 106.246 L133.189 101.327 Z" fill="#000000" fill-rule="nonzero" fill-opacity="1"></path><path clip-path="url(#clip230)" d="M187.587 82.9529 Q191.783 83.8499 194.127 86.6855 Q196.499 89.5212 196.499 93.6878 Q196.499 100.082 192.101 103.584 Q187.703 107.085 179.601 107.085 Q176.881 107.085 173.988 106.535 Q171.123 106.014 168.056 104.944 L168.056 99.3012 Q170.487 100.719 173.38 101.442 Q176.274 102.166 179.428 102.166 Q184.925 102.166 187.79 99.9956 Q190.683 97.8255 190.683 93.6878 Q190.683 89.8684 187.992 87.7272 Q185.33 85.5571 180.556 85.5571 L175.521 85.5571 L175.521 80.7538 L180.788 80.7538 Q185.099 80.7538 187.385 79.0467 Q189.671 77.3106 189.671 74.0699 Q189.671 70.7423 187.298 68.9773 Q184.954 67.1833 180.556 67.1833 Q178.154 67.1833 175.406 67.7041 Q172.657 68.225 169.358 69.3245 L169.358 64.1162 Q172.686 63.1903 175.579 62.7273 Q178.502 62.2644 181.077 62.2644 Q187.732 62.2644 191.609 65.3025 Q195.487 68.3118 195.487 73.4622 Q195.487 77.0502 193.432 79.5386 Q191.378 81.9981 187.587 82.9529 Z" fill="#000000" fill-rule="nonzero" fill-opacity="1"></path><path clip-path="url(#clip230)" d="M56.9162 899.356 L27.4893 899.356 L27.4893 891.37 L56.6124 891.37 Q63.5134 891.37 66.9856 888.679 Q70.4144 885.988 70.4144 880.606 Q70.4144 874.139 66.2912 870.407 Q62.1679 866.631 55.0499 866.631 L27.4893 866.631 L27.4893 858.644 L76.1002 858.644 L76.1002 866.631 L68.6349 866.631 Q73.062 869.539 75.2321 873.401 Q77.3588 877.221 77.3588 882.299 Q77.3588 890.676 72.1505 895.016 Q66.9422 899.356 56.9162 899.356 M26.3174 879.261 L26.3174 879.261 Z" fill="#000000" fill-rule="nonzero" fill-opacity="1"></path><path clip-path="url(#clip230)" d="M27.4893 801.787 L51.1437 819.365 L76.1002 800.876 L76.1002 810.294 L57.003 824.443 L76.1002 838.592 L76.1002 848.011 L50.6663 829.131 L27.4893 846.405 L27.4893 836.987 L44.8069 824.096 L27.4893 811.205 L27.4893 801.787 Z" fill="#000000" fill-rule="nonzero" fill-opacity="1"></path><path clip-path="url(#clip230)" d="M8.6526 742.152 Q18.6352 747.968 28.4008 750.789 Q38.1663 753.61 48.1923 753.61 Q58.2183 753.61 68.0707 750.789 Q77.8797 747.925 87.8188 742.152 L87.8188 749.096 Q77.6192 755.607 67.7669 758.862 Q57.9145 762.074 48.1923 762.074 Q38.5136 762.074 28.7046 758.862 Q18.8956 755.65 8.6526 749.096 L8.6526 742.152 Z" fill="#000000" fill-rule="nonzero" fill-opacity="1"></path><path clip-path="url(#clip230)" d="M36.8209 688.81 Q31.4389 685.816 28.8782 681.649 Q26.3174 677.482 26.3174 671.84 Q26.3174 664.244 31.656 660.121 Q36.9511 655.998 46.76 655.998 L76.1002 655.998 L76.1002 664.027 L47.0205 664.027 Q40.0326 664.027 36.6472 666.501 Q33.2618 668.975 33.2618 674.053 Q33.2618 680.26 37.3851 683.862 Q41.5083 687.465 48.6263 687.465 L76.1002 687.465 L76.1002 695.494 L47.0205 695.494 Q39.9892 695.494 36.6472 697.968 Q33.2618 700.442 33.2618 705.607 Q33.2618 711.727 37.4285 715.329 Q41.5517 718.932 48.6263 718.932 L76.1002 718.932 L76.1002 726.961 L27.4893 726.961 L27.4893 718.932 L35.0413 718.932 Q30.5709 716.197 28.4442 712.378 Q26.3174 708.558 26.3174 703.307 Q26.3174 698.012 29.0084 694.322 Q31.6994 690.59 36.8209 688.81 Z" fill="#000000" fill-rule="nonzero" fill-opacity="1"></path><path clip-path="url(#clip230)" d="M11.3002 625.877 L11.3002 618.498 L84.3466 641.068 L84.3466 648.446 L11.3002 625.877 Z" fill="#000000" fill-rule="nonzero" fill-opacity="1"></path><path clip-path="url(#clip230)" d="M28.9216 579.132 L36.4736 579.132 Q34.7375 582.517 33.8695 586.163 Q33.0014 589.809 33.0014 593.715 Q33.0014 599.661 34.8243 602.656 Q36.6472 605.608 40.2931 605.608 Q43.0708 605.608 44.6767 603.481 Q46.2392 601.354 47.6715 594.931 L48.2791 592.196 Q50.102 583.689 53.444 580.13 Q56.7426 576.528 62.6888 576.528 Q69.4596 576.528 73.4092 581.91 Q77.3588 587.248 77.3588 596.623 Q77.3588 600.53 76.5776 604.783 Q75.8397 608.993 74.3207 613.681 L66.0742 613.681 Q68.3745 609.253 69.5464 604.957 Q70.6748 600.66 70.6748 596.45 Q70.6748 590.807 68.7651 587.769 Q66.812 584.731 63.2964 584.731 Q60.0412 584.731 58.3051 586.945 Q56.569 589.115 54.9631 596.536 L54.3121 599.314 Q52.7496 606.736 49.5378 610.035 Q46.2826 613.333 40.6403 613.333 Q33.7827 613.333 30.0501 608.472 Q26.3174 603.611 26.3174 594.67 Q26.3174 590.243 26.9685 586.337 Q27.6195 582.431 28.9216 579.132 Z" fill="#000000" fill-rule="nonzero" fill-opacity="1"></path><path clip-path="url(#clip230)" d="M8.6526 565.07 L8.6526 558.125 Q18.8956 551.615 28.7046 548.403 Q38.5136 545.148 48.1923 545.148 Q57.9145 545.148 67.7669 548.403 Q77.6192 551.615 87.8188 558.125 L87.8188 565.07 Q77.8797 559.297 68.0707 556.476 Q58.2183 553.611 48.1923 553.611 Q38.1663 553.611 28.4008 556.476 Q18.6352 559.297 8.6526 565.07 Z" fill="#000000" fill-rule="nonzero" fill-opacity="1"></path><polyline clip-path="url(#clip232)" style="stroke:#009af9; stroke-linecap:round; stroke-linejoin:round; stroke-width:4; stroke-opacity:1; fill:none" points="292.507,1359.05 317.51,1248.6 342.513,1138.15 367.516,1034.99 392.519,941.839 417.522,857.787 442.525,781.992 467.528,713.677 492.531,652.116 517.534,596.515 542.537,546.196 567.54,500.761 592.543,459.794 617.546,422.901 642.549,389.714 667.552,359.889 692.555,333.105 717.558,309.064 742.561,287.488 767.564,268.122 792.567,250.731 817.57,235.102 842.573,221.043 867.576,208.373 892.579,196.924 917.582,186.549 942.585,177.127 967.588,168.552 992.591,160.74 1017.59,153.621 1042.6,147.134 1067.6,141.229 1092.6,135.861 1117.61,130.987 1142.61,126.569 1167.61,122.568 1192.62,118.949 1217.62,115.678 1242.62,112.723 1267.62,110.053 1292.63,107.641 1317.63,105.461 1342.63,103.489 1367.64,101.706 1392.64,100.092 1417.64,98.6314 1442.65,97.3083 1467.65,96.11 1492.65,95.0248 1517.65,94.042 1542.66,93.1523 1567.66,92.347 1592.66,91.6185 1617.67,90.9595 1642.67,90.3638 1667.67,89.8253 1692.68,89.3387 1717.68,88.8993 1742.68,88.5024 1767.69,88.1442 1792.69,87.8211 1817.69,87.5296 1842.69,87.267 1867.7,87.0305 1892.7,86.8178 1917.7,86.6268 1942.71,86.4556 1967.71,86.3024 1992.71,86.1658 2017.72,86.0443 2042.72,85.9368 2067.72,85.8422 2092.72,85.7596 2117.73,85.6881 2142.73,85.6271 2167.73,85.5758 2192.74,85.5339 2217.74,85.5009 2242.74,85.4764 2267.75,85.4601 2292.75,85.4521 "></polyline>
<path clip-path="url(#clip230)" d="M2017.62 1352.26 L2282.08 1352.26 L2282.08 1248.58 L2017.62 1248.58  Z" fill="#ffffff" fill-rule="evenodd" fill-opacity="1"></path>
<polyline clip-path="url(#clip230)" style="stroke:#000000; stroke-linecap:round; stroke-linejoin:round; stroke-width:4; stroke-opacity:1; fill:none" points="2017.62,1352.26 2282.08,1352.26 2282.08,1248.58 2017.62,1248.58 2017.62,1352.26 "></polyline>
<polyline clip-path="url(#clip230)" style="stroke:#009af9; stroke-linecap:round; stroke-linejoin:round; stroke-width:4; stroke-opacity:1; fill:none" points="2041.18,1300.42 2182.53,1300.42 "></polyline>
<path clip-path="url(#clip230)" d="M2219.93 1320.11 Q2218.13 1324.74 2216.42 1326.15 Q2214.7 1327.56 2211.83 1327.56 L2208.43 1327.56 L2208.43 1324 L2210.93 1324 Q2212.69 1324 2213.66 1323.16 Q2214.63 1322.33 2215.81 1319.23 L2216.58 1317.28 L2206.09 1291.77 L2210.61 1291.77 L2218.71 1312.05 L2226.81 1291.77 L2231.32 1291.77 L2219.93 1320.11 Z" fill="#000000" fill-rule="nonzero" fill-opacity="1"></path><path clip-path="url(#clip230)" d="M2238.61 1313.76 L2246.25 1313.76 L2246.25 1287.4 L2237.94 1289.07 L2237.94 1284.81 L2246.21 1283.14 L2250.88 1283.14 L2250.88 1313.76 L2258.52 1313.76 L2258.52 1317.7 L2238.61 1317.7 L2238.61 1313.76 Z" fill="#000000" fill-rule="nonzero" fill-opacity="1"></path></svg>