<svg xmlns="http://www.w3.org/2000/svg" xmlns:xlink="http://www.w3.org/1999/xlink" width="600" height="350" viewBox="0 0 2400 1400">
<defs>
  <clipPath id="clip390">
    <rect x="0" y="0" width="2400" height="1400"></rect>
  </clipPath>
</defs>
<path clip-path="url(#clip390)" d="M0 1400 L2400 1400 L2400 0 L0 0  Z" fill="#ffffff" fill-rule="evenodd" fill-opacity="1"></path>
<defs>
  <clipPath id="clip391">
    <rect x="480" y="0" width="1681" height="1400"></rect>
  </clipPath>
</defs>
<path clip-path="url(#clip390)" d="M274.283 1212.76 L2352.76 1212.76 L2352.76 47.2441 L274.283 47.2441  Z" fill="#ffffff" fill-rule="evenodd" fill-opacity="1"></path>
<defs>
  <clipPath id="clip392">
    <rect x="274" y="47" width="2079" height="1167"></rect>
  </clipPath>
</defs>
<polyline clip-path="url(#clip392)" style="stroke:#000000; stroke-linecap:round; stroke-linejoin:round; stroke-width:2; stroke-opacity:0.1; fill:none" points="528.595,1212.76 528.595,47.2441 "></polyline>
<polyline clip-path="url(#clip392)" style="stroke:#000000; stroke-linecap:round; stroke-linejoin:round; stroke-width:2; stroke-opacity:0.1; fill:none" points="919.57,1212.76 919.57,47.2441 "></polyline>
<polyline clip-path="url(#clip392)" style="stroke:#000000; stroke-linecap:round; stroke-linejoin:round; stroke-width:2; stroke-opacity:0.1; fill:none" points="1310.55,1212.76 1310.55,47.2441 "></polyline>
<polyline clip-path="url(#clip392)" style="stroke:#000000; stroke-linecap:round; stroke-linejoin:round; stroke-width:2; stroke-opacity:0.1; fill:none" points="1701.52,1212.76 1701.52,47.2441 "></polyline>
<polyline clip-path="url(#clip392)" style="stroke:#000000; stroke-linecap:round; stroke-linejoin:round; stroke-width:2; stroke-opacity:0.1; fill:none" points="2092.49,1212.76 2092.49,47.2441 "></polyline>
<polyline clip-path="url(#clip390)" style="stroke:#000000; stroke-linecap:round; stroke-linejoin:round; stroke-width:4; stroke-opacity:1; fill:none" points="274.283,1212.76 2352.76,1212.76 "></polyline>
<polyline clip-path="url(#clip390)" style="stroke:#000000; stroke-linecap:round; stroke-linejoin:round; stroke-width:4; stroke-opacity:1; fill:none" points="528.595,1212.76 528.595,1193.86 "></polyline>
<polyline clip-path="url(#clip390)" style="stroke:#000000; stroke-linecap:round; stroke-linejoin:round; stroke-width:4; stroke-opacity:1; fill:none" points="919.57,1212.76 919.57,1193.86 "></polyline>
<polyline clip-path="url(#clip390)" style="stroke:#000000; stroke-linecap:round; stroke-linejoin:round; stroke-width:4; stroke-opacity:1; fill:none" points="1310.55,1212.76 1310.55,1193.86 "></polyline>
<polyline clip-path="url(#clip390)" style="stroke:#000000; stroke-linecap:round; stroke-linejoin:round; stroke-width:4; stroke-opacity:1; fill:none" points="1701.52,1212.76 1701.52,1193.86 "></polyline>
<polyline clip-path="url(#clip390)" style="stroke:#000000; stroke-linecap:round; stroke-linejoin:round; stroke-width:4; stroke-opacity:1; fill:none" points="2092.49,1212.76 2092.49,1193.86 "></polyline>
<path clip-path="url(#clip390)" d="M528.595 1246.61 Q524.082 1246.61 521.796 1251.06 Q519.539 1255.49 519.539 1264.4 Q519.539 1273.29 521.796 1277.74 Q524.082 1282.17 528.595 1282.17 Q533.138 1282.17 535.395 1277.74 Q537.681 1273.29 537.681 1264.4 Q537.681 1255.49 535.395 1251.06 Q533.138 1246.61 528.595 1246.61 M528.595 1241.98 Q535.858 1241.98 539.678 1247.74 Q543.526 1253.47 543.526 1264.4 Q543.526 1275.31 539.678 1281.07 Q535.858 1286.8 528.595 1286.8 Q521.333 1286.8 517.484 1281.07 Q513.665 1275.31 513.665 1264.4 Q513.665 1253.47 517.484 1247.74 Q521.333 1241.98 528.595 1241.98 Z" fill="#000000" fill-rule="nonzero" fill-opacity="1"></path><path clip-path="url(#clip390)" d="M893.037 1281.04 L913.436 1281.04 L913.436 1285.96 L886.006 1285.96 L886.006 1281.04 Q889.333 1277.6 895.062 1271.81 Q900.82 1265.99 902.296 1264.32 Q905.103 1261.16 906.202 1258.99 Q907.331 1256.79 907.331 1254.68 Q907.331 1251.24 904.9 1249.07 Q902.499 1246.9 898.621 1246.9 Q895.873 1246.9 892.805 1247.85 Q889.767 1248.81 886.295 1250.75 L886.295 1244.84 Q889.825 1243.43 892.892 1242.7 Q895.959 1241.98 898.506 1241.98 Q905.219 1241.98 909.212 1245.34 Q913.205 1248.69 913.205 1254.3 Q913.205 1256.97 912.192 1259.37 Q911.208 1261.74 908.575 1264.98 Q907.852 1265.82 903.974 1269.84 Q900.097 1273.84 893.037 1281.04 Z" fill="#000000" fill-rule="nonzero" fill-opacity="1"></path><path clip-path="url(#clip390)" d="M938.204 1246.61 Q933.691 1246.61 931.405 1251.06 Q929.148 1255.49 929.148 1264.4 Q929.148 1273.29 931.405 1277.74 Q933.691 1282.17 938.204 1282.17 Q942.747 1282.17 945.004 1277.74 Q947.29 1273.29 947.29 1264.4 Q947.29 1255.49 945.004 1251.06 Q942.747 1246.61 938.204 1246.61 M938.204 1241.98 Q945.467 1241.98 949.287 1247.74 Q953.135 1253.47 953.135 1264.4 Q953.135 1275.31 949.287 1281.07 Q945.467 1286.8 938.204 1286.8 Q930.942 1286.8 927.093 1281.07 Q923.274 1275.31 923.274 1264.4 Q923.274 1253.47 927.093 1247.74 Q930.942 1241.98 938.204 1241.98 Z" fill="#000000" fill-rule="nonzero" fill-opacity="1"></path><path clip-path="url(#clip390)" d="M1295.76 1247.85 L1281 1270.91 L1295.76 1270.91 L1295.76 1247.85 M1294.23 1242.76 L1301.58 1242.76 L1301.58 1270.91 L1307.74 1270.91 L1307.74 1275.77 L1301.58 1275.77 L1301.58 1285.96 L1295.76 1285.96 L1295.76 1275.77 L1276.26 1275.77 L1276.26 1270.13 L1294.23 1242.76 Z" fill="#000000" fill-rule="nonzero" fill-opacity="1"></path><path clip-path="url(#clip390)" d="M1329.9 1246.61 Q1325.39 1246.61 1323.1 1251.06 Q1320.85 1255.49 1320.85 1264.4 Q1320.85 1273.29 1323.1 1277.74 Q1325.39 1282.17 1329.9 1282.17 Q1334.45 1282.17 1336.7 1277.74 Q1338.99 1273.29 1338.99 1264.4 Q1338.99 1255.49 1336.7 1251.06 Q1334.45 1246.61 1329.9 1246.61 M1329.9 1241.98 Q1337.17 1241.98 1340.98 1247.74 Q1344.83 1253.47 1344.83 1264.4 Q1344.83 1275.31 1340.98 1281.07 Q1337.17 1286.8 1329.9 1286.8 Q1322.64 1286.8 1318.79 1281.07 Q1314.97 1275.31 1314.97 1264.4 Q1314.97 1253.47 1318.79 1247.74 Q1322.64 1241.98 1329.9 1241.98 Z" fill="#000000" fill-rule="nonzero" fill-opacity="1"></path><path clip-path="url(#clip390)" d="M1683.28 1262.03 Q1679.34 1262.03 1677.03 1264.72 Q1674.74 1267.41 1674.74 1272.1 Q1674.74 1276.76 1677.03 1279.48 Q1679.34 1282.17 1683.28 1282.17 Q1687.21 1282.17 1689.5 1279.48 Q1691.81 1276.76 1691.81 1272.1 Q1691.81 1267.41 1689.5 1264.72 Q1687.21 1262.03 1683.28 1262.03 M1694.88 1243.71 L1694.88 1249.04 Q1692.68 1248 1690.42 1247.45 Q1688.2 1246.9 1686 1246.9 Q1680.21 1246.9 1677.14 1250.8 Q1674.1 1254.71 1673.67 1262.61 Q1675.38 1260.09 1677.95 1258.76 Q1680.53 1257.4 1683.62 1257.4 Q1690.13 1257.4 1693.9 1261.37 Q1697.69 1265.3 1697.69 1272.1 Q1697.69 1278.76 1693.75 1282.78 Q1689.82 1286.8 1683.28 1286.8 Q1675.78 1286.8 1671.82 1281.07 Q1667.85 1275.31 1667.85 1264.4 Q1667.85 1254.16 1672.72 1248.08 Q1677.58 1241.98 1685.76 1241.98 Q1687.96 1241.98 1690.19 1242.41 Q1692.45 1242.85 1694.88 1243.71 Z" fill="#000000" fill-rule="nonzero" fill-opacity="1"></path><path clip-path="url(#clip390)" d="M1720.26 1246.61 Q1715.74 1246.61 1713.46 1251.06 Q1711.2 1255.49 1711.2 1264.4 Q1711.2 1273.29 1713.46 1277.74 Q1715.74 1282.17 1720.26 1282.17 Q1724.8 1282.17 1727.06 1277.74 Q1729.34 1273.29 1729.34 1264.4 Q1729.34 1255.49 1727.06 1251.06 Q1724.8 1246.61 1720.26 1246.61 M1720.26 1241.98 Q1727.52 1241.98 1731.34 1247.74 Q1735.19 1253.47 1735.19 1264.4 Q1735.19 1275.31 1731.34 1281.07 Q1727.52 1286.8 1720.26 1286.8 Q1712.99 1286.8 1709.14 1281.07 Q1705.33 1275.31 1705.33 1264.4 Q1705.33 1253.47 1709.14 1247.74 Q1712.99 1241.98 1720.26 1241.98 Z" fill="#000000" fill-rule="nonzero" fill-opacity="1"></path><path clip-path="url(#clip390)" d="M2073.59 1265.44 Q2069.42 1265.44 2067.02 1267.67 Q2064.65 1269.9 2064.65 1273.81 Q2064.65 1277.71 2067.02 1279.94 Q2069.42 1282.17 2073.59 1282.17 Q2077.75 1282.17 2080.15 1279.94 Q2082.56 1277.68 2082.56 1273.81 Q2082.56 1269.9 2080.15 1267.67 Q2077.78 1265.44 2073.59 1265.44 M2067.74 1262.96 Q2063.98 1262.03 2061.87 1259.46 Q2059.78 1256.88 2059.78 1253.18 Q2059.78 1248 2063.46 1244.99 Q2067.16 1241.98 2073.59 1241.98 Q2080.04 1241.98 2083.71 1244.99 Q2087.39 1248 2087.39 1253.18 Q2087.39 1256.88 2085.28 1259.46 Q2083.19 1262.03 2079.46 1262.96 Q2083.68 1263.94 2086.03 1266.8 Q2088.4 1269.67 2088.4 1273.81 Q2088.4 1280.09 2084.55 1283.44 Q2080.73 1286.8 2073.59 1286.8 Q2066.44 1286.8 2062.59 1283.44 Q2058.77 1280.09 2058.77 1273.81 Q2058.77 1269.67 2061.14 1266.8 Q2063.52 1263.94 2067.74 1262.96 M2065.6 1253.73 Q2065.6 1257.08 2067.68 1258.96 Q2069.8 1260.84 2073.59 1260.84 Q2077.35 1260.84 2079.46 1258.96 Q2081.6 1257.08 2081.6 1253.73 Q2081.6 1250.37 2079.46 1248.49 Q2077.35 1246.61 2073.59 1246.61 Q2069.8 1246.61 2067.68 1248.49 Q2065.6 1250.37 2065.6 1253.73 Z" fill="#000000" fill-rule="nonzero" fill-opacity="1"></path><path clip-path="url(#clip390)" d="M2111.29 1246.61 Q2106.77 1246.61 2104.49 1251.06 Q2102.23 1255.49 2102.23 1264.4 Q2102.23 1273.29 2104.49 1277.74 Q2106.77 1282.17 2111.29 1282.17 Q2115.83 1282.17 2118.09 1277.74 Q2120.37 1273.29 2120.37 1264.4 Q2120.37 1255.49 2118.09 1251.06 Q2115.83 1246.61 2111.29 1246.61 M2111.29 1241.98 Q2118.55 1241.98 2122.37 1247.74 Q2126.22 1253.47 2126.22 1264.4 Q2126.22 1275.31 2122.37 1281.07 Q2118.55 1286.8 2111.29 1286.8 Q2104.03 1286.8 2100.18 1281.07 Q2096.36 1275.31 2096.36 1264.4 Q2096.36 1253.47 2100.18 1247.74 Q2104.03 1241.98 2111.29 1241.98 Z" fill="#000000" fill-rule="nonzero" fill-opacity="1"></path><path clip-path="url(#clip390)" d="M1199.07 1326.52 L1208.49 1326.52 L1224.59 1350.61 L1240.78 1326.52 L1250.2 1326.52 L1229.36 1357.64 L1251.58 1391.32 L1242.17 1391.32 L1223.94 1363.76 L1205.58 1391.32 L1196.12 1391.32 L1219.25 1356.73 L1199.07 1326.52 Z" fill="#000000" fill-rule="nonzero" fill-opacity="1"></path><path clip-path="url(#clip390)" d="M1310.18 1323.87 Q1304.36 1333.85 1301.54 1343.62 Q1298.72 1353.39 1298.72 1363.41 Q1298.72 1373.44 1301.54 1383.29 Q1304.41 1393.1 1310.18 1403.04 L1303.23 1403.04 Q1296.72 1392.84 1293.47 1382.99 Q1290.26 1373.13 1290.26 1363.41 Q1290.26 1353.73 1293.47 1343.92 Q1296.68 1334.12 1303.23 1323.87 L1310.18 1323.87 Z" fill="#000000" fill-rule="nonzero" fill-opacity="1"></path><path clip-path="url(#clip390)" d="M1363.52 1352.04 Q1366.51 1346.66 1370.68 1344.1 Q1374.85 1341.54 1380.49 1341.54 Q1388.09 1341.54 1392.21 1346.88 Q1396.33 1352.17 1396.33 1361.98 L1396.33 1391.32 L1388.3 1391.32 L1388.3 1362.24 Q1388.3 1355.25 1385.83 1351.87 Q1383.35 1348.48 1378.28 1348.48 Q1372.07 1348.48 1368.47 1352.6 Q1364.86 1356.73 1364.86 1363.85 L1364.86 1391.32 L1356.84 1391.32 L1356.84 1362.24 Q1356.84 1355.21 1354.36 1351.87 Q1351.89 1348.48 1346.72 1348.48 Q1340.6 1348.48 1337 1352.65 Q1333.4 1356.77 1333.4 1363.85 L1333.4 1391.32 L1325.37 1391.32 L1325.37 1342.71 L1333.4 1342.71 L1333.4 1350.26 Q1336.13 1345.79 1339.95 1343.66 Q1343.77 1341.54 1349.02 1341.54 Q1354.32 1341.54 1358.01 1344.23 Q1361.74 1346.92 1363.52 1352.04 Z" fill="#000000" fill-rule="nonzero" fill-opacity="1"></path><path clip-path="url(#clip390)" d="M1411 1323.87 L1417.95 1323.87 Q1424.46 1334.12 1427.67 1343.92 Q1430.92 1353.73 1430.92 1363.41 Q1430.92 1373.13 1427.67 1382.99 Q1424.46 1392.84 1417.95 1403.04 L1411 1403.04 Q1416.77 1393.1 1419.6 1383.29 Q1422.46 1373.44 1422.46 1363.41 Q1422.46 1353.39 1419.6 1343.62 Q1416.77 1333.85 1411 1323.87 Z" fill="#000000" fill-rule="nonzero" fill-opacity="1"></path><polyline clip-path="url(#clip392)" style="stroke:#000000; stroke-linecap:round; stroke-linejoin:round; stroke-width:2; stroke-opacity:0.1; fill:none" points="274.283,1060.08 2352.76,1060.08 "></polyline>
<polyline clip-path="url(#clip392)" style="stroke:#000000; stroke-linecap:round; stroke-linejoin:round; stroke-width:2; stroke-opacity:0.1; fill:none" points="274.283,864.588 2352.76,864.588 "></polyline>
<polyline clip-path="url(#clip392)" style="stroke:#000000; stroke-linecap:round; stroke-linejoin:round; stroke-width:2; stroke-opacity:0.1; fill:none" points="274.283,669.101 2352.76,669.101 "></polyline>
<polyline clip-path="url(#clip392)" style="stroke:#000000; stroke-linecap:round; stroke-linejoin:round; stroke-width:2; stroke-opacity:0.1; fill:none" points="274.283,473.613 2352.76,473.613 "></polyline>
<polyline clip-path="url(#clip392)" style="stroke:#000000; stroke-linecap:round; stroke-linejoin:round; stroke-width:2; stroke-opacity:0.1; fill:none" points="274.283,278.126 2352.76,278.126 "></polyline>
<polyline clip-path="url(#clip392)" style="stroke:#000000; stroke-linecap:round; stroke-linejoin:round; stroke-width:2; stroke-opacity:0.1; fill:none" points="274.283,82.6383 2352.76,82.6383 "></polyline>
<polyline clip-path="url(#clip390)" style="stroke:#000000; stroke-linecap:round; stroke-linejoin:round; stroke-width:4; stroke-opacity:1; fill:none" points="274.283,1212.76 274.283,47.2441 "></polyline>
<polyline clip-path="url(#clip390)" style="stroke:#000000; stroke-linecap:round; stroke-linejoin:round; stroke-width:4; stroke-opacity:1; fill:none" points="274.283,1060.08 293.181,1060.08 "></polyline>
<polyline clip-path="url(#clip390)" style="stroke:#000000; stroke-linecap:round; stroke-linejoin:round; stroke-width:4; stroke-opacity:1; fill:none" points="274.283,864.588 293.181,864.588 "></polyline>
<polyline clip-path="url(#clip390)" style="stroke:#000000; stroke-linecap:round; stroke-linejoin:round; stroke-width:4; stroke-opacity:1; fill:none" points="274.283,669.101 293.181,669.101 "></polyline>
<polyline clip-path="url(#clip390)" style="stroke:#000000; stroke-linecap:round; stroke-linejoin:round; stroke-width:4; stroke-opacity:1; fill:none" points="274.283,473.613 293.181,473.613 "></polyline>
<polyline clip-path="url(#clip390)" style="stroke:#000000; stroke-linecap:round; stroke-linejoin:round; stroke-width:4; stroke-opacity:1; fill:none" points="274.283,278.126 293.181,278.126 "></polyline>
<polyline clip-path="url(#clip390)" style="stroke:#000000; stroke-linecap:round; stroke-linejoin:round; stroke-width:4; stroke-opacity:1; fill:none" points="274.283,82.6383 293.181,82.6383 "></polyline>
<path clip-path="url(#clip390)" d="M123.44 1060.64 L160.535 1060.64 L160.535 1065.56 L123.44 1065.56 L123.44 1060.64 Z" fill="#000000" fill-rule="nonzero" fill-opacity="1"></path><path clip-path="url(#clip390)" d="M178.185 1076.76 L198.584 1076.76 L198.584 1081.68 L171.154 1081.68 L171.154 1076.76 Q174.482 1073.31 180.211 1067.53 Q185.969 1061.71 187.444 1060.03 Q190.251 1056.88 191.351 1054.71 Q192.479 1052.51 192.479 1050.4 Q192.479 1046.95 190.049 1044.78 Q187.647 1042.61 183.77 1042.61 Q181.021 1042.61 177.954 1043.57 Q174.916 1044.52 171.443 1046.46 L171.443 1040.56 Q174.973 1039.14 178.041 1038.42 Q181.108 1037.69 183.654 1037.69 Q190.367 1037.69 194.36 1041.05 Q198.353 1044.41 198.353 1050.02 Q198.353 1052.68 197.34 1055.08 Q196.356 1057.46 193.723 1060.7 Q193 1061.54 189.123 1065.56 Q185.245 1069.55 178.185 1076.76 Z" fill="#000000" fill-rule="nonzero" fill-opacity="1"></path><path clip-path="url(#clip390)" d="M223.353 1042.32 Q218.839 1042.32 216.553 1046.78 Q214.296 1051.21 214.296 1060.12 Q214.296 1069 216.553 1073.46 Q218.839 1077.89 223.353 1077.89 Q227.896 1077.89 230.153 1073.46 Q232.438 1069 232.438 1060.12 Q232.438 1051.21 230.153 1046.78 Q227.896 1042.32 223.353 1042.32 M223.353 1037.69 Q230.616 1037.69 234.435 1043.45 Q238.283 1049.18 238.283 1060.12 Q238.283 1071.03 234.435 1076.79 Q230.616 1082.51 223.353 1082.51 Q216.09 1082.51 212.242 1076.79 Q208.422 1071.03 208.422 1060.12 Q208.422 1049.18 212.242 1043.45 Q216.09 1037.69 223.353 1037.69 Z" fill="#000000" fill-rule="nonzero" fill-opacity="1"></path><path clip-path="url(#clip390)" d="M123.44 865.152 L160.535 865.152 L160.535 870.071 L123.44 870.071 L123.44 865.152 Z" fill="#000000" fill-rule="nonzero" fill-opacity="1"></path><path clip-path="url(#clip390)" d="M174.163 881.269 L183.712 881.269 L183.712 848.312 L173.324 850.395 L173.324 845.071 L183.654 842.988 L189.499 842.988 L189.499 881.269 L199.047 881.269 L199.047 886.188 L174.163 886.188 L174.163 881.269 Z" fill="#000000" fill-rule="nonzero" fill-opacity="1"></path><path clip-path="url(#clip390)" d="M223.353 846.836 Q218.839 846.836 216.553 851.292 Q214.296 855.719 214.296 864.631 Q214.296 873.515 216.553 877.971 Q218.839 882.398 223.353 882.398 Q227.896 882.398 230.153 877.971 Q232.438 873.515 232.438 864.631 Q232.438 855.719 230.153 851.292 Q227.896 846.836 223.353 846.836 M223.353 842.207 Q230.616 842.207 234.435 847.965 Q238.283 853.694 238.283 864.631 Q238.283 875.54 234.435 881.298 Q230.616 887.027 223.353 887.027 Q216.09 887.027 212.242 881.298 Q208.422 875.54 208.422 864.631 Q208.422 853.694 212.242 847.965 Q216.09 842.207 223.353 842.207 Z" fill="#000000" fill-rule="nonzero" fill-opacity="1"></path><path clip-path="url(#clip390)" d="M223.353 651.349 Q218.839 651.349 216.553 655.805 Q214.296 660.232 214.296 669.144 Q214.296 678.027 216.553 682.483 Q218.839 686.91 223.353 686.91 Q227.896 686.91 230.153 682.483 Q232.438 678.027 232.438 669.144 Q232.438 660.232 230.153 655.805 Q227.896 651.349 223.353 651.349 M223.353 646.719 Q230.616 646.719 234.435 652.477 Q238.283 658.207 238.283 669.144 Q238.283 680.053 234.435 685.811 Q230.616 691.54 223.353 691.54 Q216.09 691.54 212.242 685.811 Q208.422 680.053 208.422 669.144 Q208.422 658.207 212.242 652.477 Q216.09 646.719 223.353 646.719 Z" fill="#000000" fill-rule="nonzero" fill-opacity="1"></path><path clip-path="url(#clip390)" d="M174.163 490.294 L183.712 490.294 L183.712 457.337 L173.324 459.421 L173.324 454.096 L183.654 452.013 L189.499 452.013 L189.499 490.294 L199.047 490.294 L199.047 495.213 L174.163 495.213 L174.163 490.294 Z" fill="#000000" fill-rule="nonzero" fill-opacity="1"></path><path clip-path="url(#clip390)" d="M223.353 455.862 Q218.839 455.862 216.553 460.318 Q214.296 464.745 214.296 473.657 Q214.296 482.54 216.553 486.996 Q218.839 491.423 223.353 491.423 Q227.896 491.423 230.153 486.996 Q232.438 482.54 232.438 473.657 Q232.438 464.745 230.153 460.318 Q227.896 455.862 223.353 455.862 M223.353 451.232 Q230.616 451.232 234.435 456.99 Q238.283 462.719 238.283 473.657 Q238.283 484.565 234.435 490.323 Q230.616 496.052 223.353 496.052 Q216.09 496.052 212.242 490.323 Q208.422 484.565 208.422 473.657 Q208.422 462.719 212.242 456.99 Q216.09 451.232 223.353 451.232 Z" fill="#000000" fill-rule="nonzero" fill-opacity="1"></path><path clip-path="url(#clip390)" d="M178.185 294.807 L198.584 294.807 L198.584 299.726 L171.154 299.726 L171.154 294.807 Q174.482 291.364 180.211 285.577 Q185.969 279.761 187.444 278.082 Q190.251 274.928 191.351 272.758 Q192.479 270.559 192.479 268.447 Q192.479 265.004 190.049 262.834 Q187.647 260.663 183.77 260.663 Q181.021 260.663 177.954 261.618 Q174.916 262.573 171.443 264.512 L171.443 258.609 Q174.973 257.191 178.041 256.468 Q181.108 255.744 183.654 255.744 Q190.367 255.744 194.36 259.101 Q198.353 262.457 198.353 268.071 Q198.353 270.733 197.34 273.134 Q196.356 275.507 193.723 278.748 Q193 279.587 189.123 283.609 Q185.245 287.602 178.185 294.807 Z" fill="#000000" fill-rule="nonzero" fill-opacity="1"></path><path clip-path="url(#clip390)" d="M223.353 260.374 Q218.839 260.374 216.553 264.83 Q214.296 269.257 214.296 278.169 Q214.296 287.052 216.553 291.508 Q218.839 295.935 223.353 295.935 Q227.896 295.935 230.153 291.508 Q232.438 287.052 232.438 278.169 Q232.438 269.257 230.153 264.83 Q227.896 260.374 223.353 260.374 M223.353 255.744 Q230.616 255.744 234.435 261.503 Q238.283 267.232 238.283 278.169 Q238.283 289.078 234.435 294.836 Q230.616 300.565 223.353 300.565 Q216.09 300.565 212.242 294.836 Q208.422 289.078 208.422 278.169 Q208.422 267.232 212.242 261.503 Q216.09 255.744 223.353 255.744 Z" fill="#000000" fill-rule="nonzero" fill-opacity="1"></path><path clip-path="url(#clip390)" d="M190.859 80.9456 Q195.054 81.8426 197.398 84.6782 Q199.771 87.5138 199.771 91.6805 Q199.771 98.0751 195.373 101.576 Q190.975 105.077 182.873 105.077 Q180.153 105.077 177.259 104.528 Q174.395 104.007 171.328 102.936 L171.328 97.2939 Q173.758 98.7117 176.652 99.4351 Q179.545 100.158 182.699 100.158 Q188.197 100.158 191.061 97.9883 Q193.955 95.8182 193.955 91.6805 Q193.955 87.8611 191.264 85.7199 Q188.602 83.5497 183.828 83.5497 L178.793 83.5497 L178.793 78.7465 L184.059 78.7465 Q188.37 78.7465 190.656 77.0394 Q192.942 75.3033 192.942 72.0625 Q192.942 68.735 190.569 66.97 Q188.226 65.176 183.828 65.176 Q181.426 65.176 178.677 65.6968 Q175.928 66.2177 172.63 67.3172 L172.63 62.1089 Q175.957 61.183 178.851 60.72 Q181.773 60.257 184.348 60.257 Q191.003 60.257 194.881 63.2952 Q198.758 66.3045 198.758 71.4549 Q198.758 75.0428 196.704 77.5313 Q194.649 79.9907 190.859 80.9456 Z" fill="#000000" fill-rule="nonzero" fill-opacity="1"></path><path clip-path="url(#clip390)" d="M223.353 64.8867 Q218.839 64.8867 216.553 69.3426 Q214.296 73.7697 214.296 82.6817 Q214.296 91.5647 216.553 96.0207 Q218.839 100.448 223.353 100.448 Q227.896 100.448 230.153 96.0207 Q232.438 91.5647 232.438 82.6817 Q232.438 73.7697 230.153 69.3426 Q227.896 64.8867 223.353 64.8867 M223.353 60.257 Q230.616 60.257 234.435 66.0151 Q238.283 71.7443 238.283 82.6817 Q238.283 93.5902 234.435 99.3483 Q230.616 105.077 223.353 105.077 Q216.09 105.077 212.242 99.3483 Q208.422 93.5902 208.422 82.6817 Q208.422 71.7443 212.242 66.0151 Q216.09 60.257 223.353 60.257 Z" fill="#000000" fill-rule="nonzero" fill-opacity="1"></path><path clip-path="url(#clip390)" d="M3.20016 745.518 L3.20016 736.099 L29.8493 718.131 L3.20016 700.292 L3.20016 690.874 L37.1409 713.791 L68.0002 713.791 L68.0002 722.601 L37.1409 722.601 L3.20016 745.518 Z" fill="#000000" fill-rule="nonzero" fill-opacity="1"></path><path clip-path="url(#clip390)" d="M0.552602 635.232 Q10.5352 641.048 20.3008 643.869 Q30.0663 646.69 40.0923 646.69 Q50.1183 646.69 59.9707 643.869 Q69.7797 641.005 79.7188 635.232 L79.7188 642.176 Q69.5192 648.687 59.6669 651.942 Q49.8145 655.154 40.0923 655.154 Q30.4136 655.154 20.6046 651.942 Q10.7956 648.73 0.552602 642.176 L0.552602 635.232 Z" fill="#000000" fill-rule="nonzero" fill-opacity="1"></path><path clip-path="url(#clip390)" d="M28.7209 581.89 Q23.3389 578.895 20.7782 574.729 Q18.2174 570.562 18.2174 564.92 Q18.2174 557.324 23.556 553.201 Q28.8511 549.078 38.66 549.078 L68.0002 549.078 L68.0002 557.107 L38.9205 557.107 Q31.9326 557.107 28.5472 559.581 Q25.1618 562.055 25.1618 567.133 Q25.1618 573.34 29.2851 576.942 Q33.4083 580.545 40.5263 580.545 L68.0002 580.545 L68.0002 588.574 L38.9205 588.574 Q31.8892 588.574 28.5472 591.048 Q25.1618 593.522 25.1618 598.687 Q25.1618 604.807 29.3285 608.409 Q33.4517 612.012 40.5263 612.012 L68.0002 612.012 L68.0002 620.041 L19.3893 620.041 L19.3893 612.012 L26.9413 612.012 Q22.4709 609.277 20.3442 605.458 Q18.2174 601.638 18.2174 596.387 Q18.2174 591.092 20.9084 587.402 Q23.5994 583.67 28.7209 581.89 Z" fill="#000000" fill-rule="nonzero" fill-opacity="1"></path><path clip-path="url(#clip390)" d="M0.552602 534.408 L0.552602 527.463 Q10.7956 520.953 20.6046 517.741 Q30.4136 514.486 40.0923 514.486 Q49.8145 514.486 59.6669 517.741 Q69.5192 520.953 79.7188 527.463 L79.7188 534.408 Q69.7797 528.635 59.9707 525.814 Q50.1183 522.95 40.0923 522.95 Q30.0663 522.95 20.3008 525.814 Q10.5352 528.635 0.552602 534.408 Z" fill="#000000" fill-rule="nonzero" fill-opacity="1"></path><polyline clip-path="url(#clip392)" style="stroke:#009af9; stroke-linecap:round; stroke-linejoin:round; stroke-width:4; stroke-opacity:1; fill:none" points="333.108,669.101 353.165,669.054 373.717,668.939 394.718,668.753 416.124,668.508 437.898,668.232 460.006,667.965 482.417,667.761 505.103,667.683 528.038,667.802 551.195,668.193 574.549,668.929 598.071,670.079 621.734,671.7 645.509,673.835 669.368,676.509 693.288,679.72 717.25,683.437 741.245,687.602 765.268,692.146 789.322,696.997 813.413,702.073 837.553,707.289 861.753,712.555 886.03,717.778 910.399,722.865 934.872,727.721 959.461,732.25 984.172,736.354 1009,739.938 1033.95,742.904 1059.01,745.156 1084.14,746.602 1109.33,747.156 1134.55,746.807 1159.75,745.587 1184.92,743.54 1210.03,740.723 1235.08,737.207 1260.04,733.076 1284.93,728.423 1309.74,723.347 1334.5,717.95 1359.22,712.336 1383.92,706.608 1408.62,700.869 1433.35,695.22 1458.13,689.764 1482.97,684.6 1507.89,679.826 1532.9,675.522 1558,671.741 1583.17,668.514 1608.41,665.856 1633.71,663.759 1659.05,662.201 1684.42,661.148 1709.8,660.552 1735.2,660.357 1760.59,660.505 1785.98,660.932 1811.38,661.579 1836.76,662.386 1862.15,663.3 1887.53,664.273 1912.92,665.262 1938.3,666.232 1963.69,667.152 1989.08,667.999 2014.48,668.754 2039.87,669.404 2065.27,669.939 2090.68,670.352 2116.09,670.639 2141.49,670.799 2166.9,670.831 2192.31,670.735 2217.72,670.514 2243.12,670.167 2268.53,669.695 2293.93,669.1 "></polyline>
<path clip-path="url(#clip392)" d="M1115.06 512.711 L1116.53 512.72 L1118.01 512.748 L1119.49 512.794 L1120.96 512.859 L1122.44 512.943 L1123.91 513.045 L1125.38 513.166 L1126.85 513.305 L1128.32 513.463 L1129.79 513.639 L1131.25 513.834 L1132.71 514.047 L1134.17 514.279 L1135.63 514.528 L1137.08 514.797 L1138.53 515.083 L1139.97 515.388 L1141.41 515.71 L1142.85 516.051 L1144.28 516.41 L1145.71 516.787 L1147.14 517.182 L1148.55 517.595 L1149.97 518.026 L1151.37 518.474 L1152.77 518.94 L1154.17 519.424 L1155.56 519.925 L1156.94 520.444 L1158.32 520.98 L1159.69 521.533 L1161.05 522.104 L1162.4 522.692 L1163.75 523.296 L1165.09 523.918 L1166.42 524.556 L1167.75 525.211 L1169.06 525.883 L1170.37 526.571 L1171.67 527.276 L1172.96 527.997 L1174.24 528.734 L1175.51 529.487 L1176.77 530.256 L1178.02 531.041 L1179.26 531.842 L1180.49 532.658 L1181.71 533.489 L1182.92 534.336 L1184.12 535.198 L1185.31 536.076 L1186.49 536.967 L1187.65 537.874 L1188.81 538.796 L1189.95 539.731 L1191.08 540.681 L1192.2 541.646 L1193.3 542.624 L1194.4 543.616 L1195.48 544.622 L1196.55 545.641 L1197.6 546.674 L1198.65 547.72 L1199.68 548.779 L1200.69 549.851 L1201.69 550.936 L1202.68 552.033 L1203.66 553.142 L1204.62 554.264 L1205.56 555.398 L1206.5 556.543 L1207.41 557.7 L1208.32 558.869 L1209.21 560.049 L1210.08 561.24 L1210.94 562.442 L1211.78 563.654 L1212.61 564.877 L1213.42 566.111 L1214.22 567.354 L1215 568.608 L1215.76 569.871 L1216.51 571.144 L1217.25 572.426 L1217.96 573.717 L1218.66 575.017 L1219.35 576.326 L1220.01 577.644 L1220.67 578.969 L1221.3 580.303 L1221.92 581.645 L1222.52 582.994 L1223.1 584.351 L1223.67 585.715 L1224.22 587.086 L1224.75 588.464 L1225.26 589.848 L1225.76 591.239 L1226.24 592.636 L1226.7 594.039 L1227.14 595.447 L1227.57 596.861 L1227.98 598.281 L1228.37 599.705 L1228.74 601.134 L1229.1 602.568 L1229.43 604.006 L1229.75 605.448 L1230.05 606.894 L1230.33 608.344 L1230.6 609.797 L1230.84 611.254 L1231.07 612.713 L1231.28 614.175 L1231.47 615.64 L1231.64 617.106 L1231.79 618.575 L1231.93 620.046 L1232.04 621.518 L1232.14 622.992 L1232.22 624.467 L1232.28 625.942 L1232.32 627.419 L1232.34 628.895 L1232.35 630.372 L1232.34 631.849 L1232.3 633.326 L1232.25 634.802 L1232.18 636.277 L1232.09 637.751 L1231.99 639.224 L1231.86 640.696 L1231.72 642.166 L1231.56 643.634 L1231.37 645.099 L1231.18 646.563 L1230.96 648.023 L1230.72 649.481 L1230.47 650.936 L1230.19 652.388 L1229.9 653.836 L1229.59 655.28 L1229.27 656.72 L1228.92 658.156 L1228.56 659.587 L1228.18 661.014 L1227.78 662.436 L1227.36 663.853 L1226.92 665.264 L1226.47 666.67 L1226 668.07 L1225.51 669.463 L1225.01 670.851 L1224.48 672.232 L1223.94 673.607 L1223.39 674.974 L1222.81 676.335 L1222.22 677.688 L1221.61 679.033 L1220.99 680.371 L1220.34 681.701 L1219.68 683.022 L1219.01 684.336 L1218.31 685.64 L1217.61 686.936 L1216.88 688.223 L1216.14 689.5 L1215.38 690.768 L1214.61 692.026 L1213.82 693.275 L1213.02 694.514 L1212.2 695.742 L1211.36 696.96 L1210.51 698.167 L1209.64 699.363 L1208.76 700.549 L1207.87 701.723 L1206.96 702.886 L1206.03 704.037 L1205.09 705.177 L1204.14 706.305 L1203.17 707.42 L1202.19 708.524 L1201.19 709.615 L1200.19 710.693 L1199.16 711.758 L1198.13 712.811 L1197.08 713.85 L1196.02 714.876 L1194.94 715.889 L1193.85 716.888 L1192.75 717.873 L1191.64 718.844 L1190.51 719.802 L1189.38 720.745 L1188.23 721.673 L1187.07 722.587 L1185.9 723.487 L1184.72 724.371 L1183.52 725.241 L1182.32 726.095 L1181.1 726.935 L1179.88 727.758 L1178.64 728.567 L1177.39 729.36 L1176.14 730.137 L1174.87 730.898 L1173.6 731.643 L1172.31 732.372 L1171.02 733.085 L1169.72 733.781 L1168.41 734.461 L1167.09 735.125 L1165.76 735.771 L1164.42 736.401 L1163.08 737.015 L1161.73 737.611 L1160.37 738.19 L1159 738.752 L1157.63 739.296 L1156.25 739.824 L1154.87 740.334 L1153.47 740.826 L1152.07 741.301 L1150.67 741.758 L1149.26 742.198 L1147.85 742.62 L1146.42 743.024 L1145 743.41 L1143.57 743.778 L1142.13 744.128 L1140.69 744.46 L1139.25 744.773 L1137.8 745.069 L1136.35 745.346 L1134.9 745.605 L1133.44 745.846 L1131.98 746.068 L1130.52 746.272 L1129.05 746.457 L1127.59 746.624 L1126.12 746.773 L1124.65 746.903 L1123.17 747.014 L1121.7 747.107 L1120.23 747.182 L1118.75 747.237 L1117.27 747.275 L1115.8 747.293 L1114.32 747.293 L1112.84 747.275 L1111.37 747.237 L1109.89 747.182 L1108.42 747.107 L1106.94 747.014 L1105.47 746.903 L1104 746.773 L1102.53 746.624 L1101.06 746.457 L1099.6 746.272 L1098.13 746.068 L1096.67 745.846 L1095.22 745.605 L1093.76 745.346 L1092.31 745.069 L1090.86 744.773 L1089.42 744.46 L1087.98 744.128 L1086.55 743.778 L1085.12 743.41 L1083.69 743.024 L1082.27 742.62 L1080.86 742.198 L1079.45 741.758 L1078.04 741.301 L1076.64 740.826 L1075.25 740.334 L1073.86 739.824 L1072.48 739.296 L1071.11 738.752 L1069.75 738.19 L1068.39 737.611 L1067.04 737.015 L1065.69 736.401 L1064.36 735.771 L1063.03 735.125 L1061.71 734.461 L1060.4 733.781 L1059.1 733.085 L1057.8 732.372 L1056.52 731.643 L1055.24 730.898 L1053.98 730.137 L1052.72 729.36 L1051.48 728.567 L1050.24 727.758 L1049.01 726.935 L1047.8 726.095 L1046.59 725.241 L1045.4 724.371 L1044.22 723.487 L1043.05 722.587 L1041.89 721.673 L1040.74 720.745 L1039.6 719.802 L1038.48 718.844 L1037.36 717.873 L1036.26 716.888 L1035.18 715.889 L1034.1 714.876 L1033.04 713.85 L1031.99 712.811 L1030.95 711.758 L1029.93 710.693 L1028.92 709.615 L1027.93 708.524 L1026.94 707.42 L1025.98 706.305 L1025.02 705.177 L1024.08 704.037 L1023.16 702.886 L1022.25 701.723 L1021.35 700.549 L1020.47 699.363 L1019.61 698.167 L1018.75 696.96 L1017.92 695.742 L1017.1 694.514 L1016.29 693.275 L1015.51 692.026 L1014.73 690.768 L1013.98 689.5 L1013.23 688.223 L1012.51 686.936 L1011.8 685.64 L1011.11 684.336 L1010.43 683.022 L1009.77 681.701 L1009.13 680.371 L1008.5 679.033 L1007.9 677.688 L1007.3 676.335 L1006.73 674.974 L1006.17 673.607 L1005.63 672.232 L1005.11 670.851 L1004.6 669.463 L1004.11 668.07 L1003.64 666.67 L1003.19 665.264 L1002.76 663.853 L1002.34 662.436 L1001.94 661.014 L1001.56 659.587 L1001.19 658.156 L1000.85 656.72 L1000.52 655.28 L1000.21 653.836 L999.921 652.388 L999.648 650.936 L999.394 649.481 L999.158 648.023 L998.94 646.563 L998.741 645.099 L998.56 643.634 L998.398 642.166 L998.254 640.696 L998.128 639.224 L998.021 637.751 L997.933 636.277 L997.863 634.802 L997.812 633.326 L997.78 631.849 L997.766 630.372 L997.771 628.895 L997.794 627.419 L997.836 625.942 L997.896 624.467 L997.975 622.992 L998.073 621.518 L998.189 620.046 L998.323 618.575 L998.476 617.106 L998.648 615.64 L998.838 614.175 L999.047 612.713 L999.274 611.254 L999.519 609.797 L999.782 608.344 L1000.06 606.894 L1000.36 605.448 L1000.68 604.006 L1001.02 602.568 L1001.37 601.134 L1001.75 599.705 L1002.14 598.281 L1002.54 596.861 L1002.97 595.447 L1003.42 594.039 L1003.88 592.636 L1004.36 591.239 L1004.85 589.848 L1005.37 588.464 L1005.9 587.086 L1006.45 585.715 L1007.01 584.351 L1007.6 582.994 L1008.2 581.645 L1008.82 580.303 L1009.45 578.969 L1010.1 577.644 L1010.77 576.326 L1011.45 575.017 L1012.15 573.717 L1012.87 572.426 L1013.6 571.144 L1014.35 569.871 L1015.12 568.608 L1015.9 567.354 L1016.69 566.111 L1017.51 564.877 L1018.33 563.654 L1019.18 562.442 L1020.04 561.24 L1020.91 560.049 L1021.8 558.869 L1022.7 557.7 L1023.62 556.543 L1024.55 555.398 L1025.5 554.264 L1026.46 553.142 L1027.43 552.033 L1028.42 550.936 L1029.42 549.851 L1030.44 548.779 L1031.47 547.72 L1032.51 546.674 L1033.57 545.641 L1034.64 544.622 L1035.72 543.616 L1036.81 542.624 L1037.92 541.646 L1039.04 540.681 L1040.17 539.731 L1041.31 538.796 L1042.46 537.874 L1043.63 536.967 L1044.81 536.076 L1046 535.198 L1047.19 534.336 L1048.4 533.489 L1049.63 532.658 L1050.86 531.842 L1052.1 531.041 L1053.35 530.256 L1054.61 529.487 L1055.88 528.734 L1057.16 527.997 L1058.45 527.276 L1059.75 526.571 L1061.05 525.883 L1062.37 525.211 L1063.69 524.556 L1065.02 523.918 L1066.36 523.296 L1067.71 522.692 L1069.07 522.104 L1070.43 521.533 L1071.8 520.98 L1073.17 520.444 L1074.56 519.925 L1075.95 519.424 L1077.34 518.94 L1078.74 518.474 L1080.15 518.026 L1081.56 517.595 L1082.98 517.182 L1084.4 516.787 L1085.83 516.41 L1087.26 516.051 L1088.7 515.71 L1090.14 515.388 L1091.59 515.083 L1093.04 514.797 L1094.49 514.528 L1095.94 514.279 L1097.4 514.047 L1098.86 513.834 L1100.33 513.639 L1101.79 513.463 L1103.26 513.305 L1104.73 513.166 L1106.2 513.045 L1107.68 512.943 L1109.15 512.859 L1110.63 512.794 L1112.1 512.748 L1113.58 512.72 L1115.06 512.711 L1115.06 512.711  Z" fill="#000000" fill-rule="evenodd" fill-opacity="0.2"></path>
<polyline clip-path="url(#clip392)" style="stroke:#000000; stroke-linecap:round; stroke-linejoin:round; stroke-width:2; stroke-opacity:1; fill:none" points="1115.06,512.711 1116.53,512.72 1118.01,512.748 1119.49,512.794 1120.96,512.859 1122.44,512.943 1123.91,513.045 1125.38,513.166 1126.85,513.305 1128.32,513.463 1129.79,513.639 1131.25,513.834 1132.71,514.047 1134.17,514.279 1135.63,514.528 1137.08,514.797 1138.53,515.083 1139.97,515.388 1141.41,515.71 1142.85,516.051 1144.28,516.41 1145.71,516.787 1147.14,517.182 1148.55,517.595 1149.97,518.026 1151.37,518.474 1152.77,518.94 1154.17,519.424 1155.56,519.925 1156.94,520.444 1158.32,520.98 1159.69,521.533 1161.05,522.104 1162.4,522.692 1163.75,523.296 1165.09,523.918 1166.42,524.556 1167.75,525.211 1169.06,525.883 1170.37,526.571 1171.67,527.276 1172.96,527.997 1174.24,528.734 1175.51,529.487 1176.77,530.256 1178.02,531.041 1179.26,531.842 1180.49,532.658 1181.71,533.489 1182.92,534.336 1184.12,535.198 1185.31,536.076 1186.49,536.967 1187.65,537.874 1188.81,538.796 1189.95,539.731 1191.08,540.681 1192.2,541.646 1193.3,542.624 1194.4,543.616 1195.48,544.622 1196.55,545.641 1197.6,546.674 1198.65,547.72 1199.68,548.779 1200.69,549.851 1201.69,550.936 1202.68,552.033 1203.66,553.142 1204.62,554.264 1205.56,555.398 1206.5,556.543 1207.41,557.7 1208.32,558.869 1209.21,560.049 1210.08,561.24 1210.94,562.442 1211.78,563.654 1212.61,564.877 1213.42,566.111 1214.22,567.354 1215,568.608 1215.76,569.871 1216.51,571.144 1217.25,572.426 1217.96,573.717 1218.66,575.017 1219.35,576.326 1220.01,577.644 1220.67,578.969 1221.3,580.303 1221.92,581.645 1222.52,582.994 1223.1,584.351 1223.67,585.715 1224.22,587.086 1224.75,588.464 1225.26,589.848 1225.76,591.239 1226.24,592.636 1226.7,594.039 1227.14,595.447 1227.57,596.861 1227.98,598.281 1228.37,599.705 1228.74,601.134 1229.1,602.568 1229.43,604.006 1229.75,605.448 1230.05,606.894 1230.33,608.344 1230.6,609.797 1230.84,611.254 1231.07,612.713 1231.28,614.175 1231.47,615.64 1231.64,617.106 1231.79,618.575 1231.93,620.046 1232.04,621.518 1232.14,622.992 1232.22,624.467 1232.28,625.942 1232.32,627.419 1232.34,628.895 1232.35,630.372 1232.34,631.849 1232.3,633.326 1232.25,634.802 1232.18,636.277 1232.09,637.751 1231.99,639.224 1231.86,640.696 1231.72,642.166 1231.56,643.634 1231.37,645.099 1231.18,646.563 1230.96,648.023 1230.72,649.481 1230.47,650.936 1230.19,652.388 1229.9,653.836 1229.59,655.28 1229.27,656.72 1228.92,658.156 1228.56,659.587 1228.18,661.014 1227.78,662.436 1227.36,663.853 1226.92,665.264 1226.47,666.67 1226,668.07 1225.51,669.463 1225.01,670.851 1224.48,672.232 1223.94,673.607 1223.39,674.974 1222.81,676.335 1222.22,677.688 1221.61,679.033 1220.99,680.371 1220.34,681.701 1219.68,683.022 1219.01,684.336 1218.31,685.64 1217.61,686.936 1216.88,688.223 1216.14,689.5 1215.38,690.768 1214.61,692.026 1213.82,693.275 1213.02,694.514 1212.2,695.742 1211.36,696.96 1210.51,698.167 1209.64,699.363 1208.76,700.549 1207.87,701.723 1206.96,702.886 1206.03,704.037 1205.09,705.177 1204.14,706.305 1203.17,707.42 1202.19,708.524 1201.19,709.615 1200.19,710.693 1199.16,711.758 1198.13,712.811 1197.08,713.85 1196.02,714.876 1194.94,715.889 1193.85,716.888 1192.75,717.873 1191.64,718.844 1190.51,719.802 1189.38,720.745 1188.23,721.673 1187.07,722.587 1185.9,723.487 1184.72,724.371 1183.52,725.241 1182.32,726.095 1181.1,726.935 1179.88,727.758 1178.64,728.567 1177.39,729.36 1176.14,730.137 1174.87,730.898 1173.6,731.643 1172.31,732.372 1171.02,733.085 1169.72,733.781 1168.41,734.461 1167.09,735.125 1165.76,735.771 1164.42,736.401 1163.08,737.015 1161.73,737.611 1160.37,738.19 1159,738.752 1157.63,739.296 1156.25,739.824 1154.87,740.334 1153.47,740.826 1152.07,741.301 1150.67,741.758 1149.26,742.198 1147.85,742.62 1146.42,743.024 1145,743.41 1143.57,743.778 1142.13,744.128 1140.69,744.46 1139.25,744.773 1137.8,745.069 1136.35,745.346 1134.9,745.605 1133.44,745.846 1131.98,746.068 1130.52,746.272 1129.05,746.457 1127.59,746.624 1126.12,746.773 1124.65,746.903 1123.17,747.014 1121.7,747.107 1120.23,747.182 1118.75,747.237 1117.27,747.275 1115.8,747.293 1114.32,747.293 1112.84,747.275 1111.37,747.237 1109.89,747.182 1108.42,747.107 1106.94,747.014 1105.47,746.903 1104,746.773 1102.53,746.624 1101.06,746.457 1099.6,746.272 1098.13,746.068 1096.67,745.846 1095.22,745.605 1093.76,745.346 1092.31,745.069 1090.86,744.773 1089.42,744.46 1087.98,744.128 1086.55,743.778 1085.12,743.41 1083.69,743.024 1082.27,742.62 1080.86,742.198 1079.45,741.758 1078.04,741.301 1076.64,740.826 1075.25,740.334 1073.86,739.824 1072.48,739.296 1071.11,738.752 1069.75,738.19 1068.39,737.611 1067.04,737.015 1065.69,736.401 1064.36,735.771 1063.03,735.125 1061.71,734.461 1060.4,733.781 1059.1,733.085 1057.8,732.372 1056.52,731.643 1055.24,730.898 1053.98,730.137 1052.72,729.36 1051.48,728.567 1050.24,727.758 1049.01,726.935 1047.8,726.095 1046.59,725.241 1045.4,724.371 1044.22,723.487 1043.05,722.587 1041.89,721.673 1040.74,720.745 1039.6,719.802 1038.48,718.844 1037.36,717.873 1036.26,716.888 1035.18,715.889 1034.1,714.876 1033.04,713.85 1031.99,712.811 1030.95,711.758 1029.93,710.693 1028.92,709.615 1027.93,708.524 1026.94,707.42 1025.98,706.305 1025.02,705.177 1024.08,704.037 1023.16,702.886 1022.25,701.723 1021.35,700.549 1020.47,699.363 1019.61,698.167 1018.75,696.96 1017.92,695.742 1017.1,694.514 1016.29,693.275 1015.51,692.026 1014.73,690.768 1013.98,689.5 1013.23,688.223 1012.51,686.936 1011.8,685.64 1011.11,684.336 1010.43,683.022 1009.77,681.701 1009.13,680.371 1008.5,679.033 1007.9,677.688 1007.3,676.335 1006.73,674.974 1006.17,673.607 1005.63,672.232 1005.11,670.851 1004.6,669.463 1004.11,668.07 1003.64,666.67 1003.19,665.264 1002.76,663.853 1002.34,662.436 1001.94,661.014 1001.56,659.587 1001.19,658.156 1000.85,656.72 1000.52,655.28 1000.21,653.836 999.921,652.388 999.648,650.936 999.394,649.481 999.158,648.023 998.94,646.563 998.741,645.099 998.56,643.634 998.398,642.166 998.254,640.696 998.128,639.224 998.021,637.751 997.933,636.277 997.863,634.802 997.812,633.326 997.78,631.849 997.766,630.372 997.771,628.895 997.794,627.419 997.836,625.942 997.896,624.467 997.975,622.992 998.073,621.518 998.189,620.046 998.323,618.575 998.476,617.106 998.648,615.64 998.838,614.175 999.047,612.713 999.274,611.254 999.519,609.797 999.782,608.344 1000.06,606.894 1000.36,605.448 1000.68,604.006 1001.02,602.568 1001.37,601.134 1001.75,599.705 1002.14,598.281 1002.54,596.861 1002.97,595.447 1003.42,594.039 1003.88,592.636 1004.36,591.239 1004.85,589.848 1005.37,588.464 1005.9,587.086 1006.45,585.715 1007.01,584.351 1007.6,582.994 1008.2,581.645 1008.82,580.303 1009.45,578.969 1010.1,577.644 1010.77,576.326 1011.45,575.017 1012.15,573.717 1012.87,572.426 1013.6,571.144 1014.35,569.871 1015.12,568.608 1015.9,567.354 1016.69,566.111 1017.51,564.877 1018.33,563.654 1019.18,562.442 1020.04,561.24 1020.91,560.049 1021.8,558.869 1022.7,557.7 1023.62,556.543 1024.55,555.398 1025.5,554.264 1026.46,553.142 1027.43,552.033 1028.42,550.936 1029.42,549.851 1030.44,548.779 1031.47,547.72 1032.51,546.674 1033.57,545.641 1034.64,544.622 1035.72,543.616 1036.81,542.624 1037.92,541.646 1039.04,540.681 1040.17,539.731 1041.31,538.796 1042.46,537.874 1043.63,536.967 1044.81,536.076 1046,535.198 1047.19,534.336 1048.4,533.489 1049.63,532.658 1050.86,531.842 1052.1,531.041 1053.35,530.256 1054.61,529.487 1055.88,528.734 1057.16,527.997 1058.45,527.276 1059.75,526.571 1061.05,525.883 1062.37,525.211 1063.69,524.556 1065.02,523.918 1066.36,523.296 1067.71,522.692 1069.07,522.104 1070.43,521.533 1071.8,520.98 1073.17,520.444 1074.56,519.925 1075.95,519.424 1077.34,518.94 1078.74,518.474 1080.15,518.026 1081.56,517.595 1082.98,517.182 1084.4,516.787 1085.83,516.41 1087.26,516.051 1088.7,515.71 1090.14,515.388 1091.59,515.083 1093.04,514.797 1094.49,514.528 1095.94,514.279 1097.4,514.047 1098.86,513.834 1100.33,513.639 1101.79,513.463 1103.26,513.305 1104.73,513.166 1106.2,513.045 1107.68,512.943 1109.15,512.859 1110.63,512.794 1112.1,512.748 1113.58,512.72 1115.06,512.711 "></polyline>
</svg>