<svg xmlns="http://www.w3.org/2000/svg" xmlns:xlink="http://www.w3.org/1999/xlink" width="600" height="400" viewBox="0 0 2400 1600">
<defs>
  <clipPath id="clip190">
    <rect x="0" y="0" width="2400" height="1600"></rect>
  </clipPath>
</defs>
<path clip-path="url(#clip190)" d="M0 1600 L2400 1600 L2400 0 L0 0  Z" fill="#ffffff" fill-rule="evenodd" fill-opacity="1"></path>
<defs>
  <clipPath id="clip191">
    <rect x="480" y="0" width="1681" height="1600"></rect>
  </clipPath>
</defs>
<path clip-path="url(#clip190)" d="M199.021 1397.26 L2352.76 1397.26 L2352.76 47.2441 L199.021 47.2441  Z" fill="#ffffff" fill-rule="evenodd" fill-opacity="1"></path>
<defs>
  <clipPath id="clip192">
    <rect x="199" y="47" width="2155" height="1351"></rect>
  </clipPath>
</defs>
<polyline clip-path="url(#clip192)" style="stroke:#000000; stroke-linecap:round; stroke-linejoin:round; stroke-width:2; stroke-opacity:0.1; fill:none" points="461.856,1397.26 461.856,47.2441 "></polyline>
<polyline clip-path="url(#clip192)" style="stroke:#000000; stroke-linecap:round; stroke-linejoin:round; stroke-width:2; stroke-opacity:0.1; fill:none" points="865.615,1397.26 865.615,47.2441 "></polyline>
<polyline clip-path="url(#clip192)" style="stroke:#000000; stroke-linecap:round; stroke-linejoin:round; stroke-width:2; stroke-opacity:0.1; fill:none" points="1269.37,1397.26 1269.37,47.2441 "></polyline>
<polyline clip-path="url(#clip192)" style="stroke:#000000; stroke-linecap:round; stroke-linejoin:round; stroke-width:2; stroke-opacity:0.1; fill:none" points="1673.13,1397.26 1673.13,47.2441 "></polyline>
<polyline clip-path="url(#clip192)" style="stroke:#000000; stroke-linecap:round; stroke-linejoin:round; stroke-width:2; stroke-opacity:0.1; fill:none" points="2076.89,1397.26 2076.89,47.2441 "></polyline>
<polyline clip-path="url(#clip190)" style="stroke:#000000; stroke-linecap:round; stroke-linejoin:round; stroke-width:4; stroke-opacity:1; fill:none" points="199.021,1397.26 2352.76,1397.26 "></polyline>
<polyline clip-path="url(#clip190)" style="stroke:#000000; stroke-linecap:round; stroke-linejoin:round; stroke-width:4; stroke-opacity:1; fill:none" points="461.856,1397.26 461.856,1378.36 "></polyline>
<polyline clip-path="url(#clip190)" style="stroke:#000000; stroke-linecap:round; stroke-linejoin:round; stroke-width:4; stroke-opacity:1; fill:none" points="865.615,1397.26 865.615,1378.36 "></polyline>
<polyline clip-path="url(#clip190)" style="stroke:#000000; stroke-linecap:round; stroke-linejoin:round; stroke-width:4; stroke-opacity:1; fill:none" points="1269.37,1397.26 1269.37,1378.36 "></polyline>
<polyline clip-path="url(#clip190)" style="stroke:#000000; stroke-linecap:round; stroke-linejoin:round; stroke-width:4; stroke-opacity:1; fill:none" points="1673.13,1397.26 1673.13,1378.36 "></polyline>
<polyline clip-path="url(#clip190)" style="stroke:#000000; stroke-linecap:round; stroke-linejoin:round; stroke-width:4; stroke-opacity:1; fill:none" points="2076.89,1397.26 2076.89,1378.36 "></polyline>
<path clip-path="url(#clip190)" d="M461.856 1431.11 Q457.342 1431.11 455.056 1435.56 Q452.799 1439.99 452.799 1448.9 Q452.799 1457.79 455.056 1462.24 Q457.342 1466.67 461.856 1466.67 Q466.398 1466.67 468.655 1462.24 Q470.941 1457.79 470.941 1448.9 Q470.941 1439.99 468.655 1435.56 Q466.398 1431.11 461.856 1431.11 M461.856 1426.48 Q469.118 1426.48 472.938 1432.24 Q476.786 1437.97 476.786 1448.9 Q476.786 1459.81 472.938 1465.57 Q469.118 1471.3 461.856 1471.3 Q454.593 1471.3 450.745 1465.57 Q446.925 1459.81 446.925 1448.9 Q446.925 1437.97 450.745 1432.24 Q454.593 1426.48 461.856 1426.48 Z" fill="#000000" fill-rule="nonzero" fill-opacity="1"></path><path clip-path="url(#clip190)" d="M839.081 1465.54 L859.48 1465.54 L859.48 1470.46 L832.05 1470.46 L832.05 1465.54 Q835.377 1462.1 841.107 1456.31 Q846.865 1450.49 848.34 1448.82 Q851.147 1445.66 852.247 1443.49 Q853.375 1441.29 853.375 1439.18 Q853.375 1435.74 850.945 1433.57 Q848.543 1431.4 844.666 1431.4 Q841.917 1431.4 838.85 1432.35 Q835.811 1433.31 832.339 1435.25 L832.339 1429.34 Q835.869 1427.93 838.936 1427.2 Q842.004 1426.48 844.55 1426.48 Q851.263 1426.48 855.256 1429.84 Q859.249 1433.19 859.249 1438.8 Q859.249 1441.47 858.236 1443.87 Q857.252 1446.24 854.619 1449.48 Q853.896 1450.32 850.019 1454.34 Q846.141 1458.34 839.081 1465.54 Z" fill="#000000" fill-rule="nonzero" fill-opacity="1"></path><path clip-path="url(#clip190)" d="M884.249 1431.11 Q879.735 1431.11 877.449 1435.56 Q875.192 1439.99 875.192 1448.9 Q875.192 1457.79 877.449 1462.24 Q879.735 1466.67 884.249 1466.67 Q888.792 1466.67 891.048 1462.24 Q893.334 1457.79 893.334 1448.9 Q893.334 1439.99 891.048 1435.56 Q888.792 1431.11 884.249 1431.11 M884.249 1426.48 Q891.511 1426.48 895.331 1432.24 Q899.179 1437.97 899.179 1448.9 Q899.179 1459.81 895.331 1465.57 Q891.511 1471.3 884.249 1471.3 Q876.986 1471.3 873.138 1465.57 Q869.318 1459.81 869.318 1448.9 Q869.318 1437.97 873.138 1432.24 Q876.986 1426.48 884.249 1426.48 Z" fill="#000000" fill-rule="nonzero" fill-opacity="1"></path><path clip-path="url(#clip190)" d="M1254.59 1432.35 L1239.83 1455.41 L1254.59 1455.41 L1254.59 1432.35 M1253.05 1427.26 L1260.4 1427.26 L1260.4 1455.41 L1266.57 1455.41 L1266.57 1460.27 L1260.4 1460.27 L1260.4 1470.46 L1254.59 1470.46 L1254.59 1460.27 L1235.09 1460.27 L1235.09 1454.63 L1253.05 1427.26 Z" fill="#000000" fill-rule="nonzero" fill-opacity="1"></path><path clip-path="url(#clip190)" d="M1288.73 1431.11 Q1284.22 1431.11 1281.93 1435.56 Q1279.67 1439.99 1279.67 1448.9 Q1279.67 1457.79 1281.93 1462.24 Q1284.22 1466.67 1288.73 1466.67 Q1293.27 1466.67 1295.53 1462.24 Q1297.82 1457.79 1297.82 1448.9 Q1297.82 1439.99 1295.53 1435.56 Q1293.27 1431.11 1288.73 1431.11 M1288.73 1426.48 Q1295.99 1426.48 1299.81 1432.24 Q1303.66 1437.97 1303.66 1448.9 Q1303.66 1459.81 1299.81 1465.57 Q1295.99 1471.3 1288.73 1471.3 Q1281.47 1471.3 1277.62 1465.57 Q1273.8 1459.81 1273.8 1448.9 Q1273.8 1437.97 1277.62 1432.24 Q1281.47 1426.48 1288.73 1426.48 Z" fill="#000000" fill-rule="nonzero" fill-opacity="1"></path><path clip-path="url(#clip190)" d="M1654.89 1446.53 Q1650.95 1446.53 1648.64 1449.22 Q1646.35 1451.91 1646.35 1456.6 Q1646.35 1461.26 1648.64 1463.98 Q1650.95 1466.67 1654.89 1466.67 Q1658.82 1466.67 1661.11 1463.98 Q1663.42 1461.26 1663.42 1456.6 Q1663.42 1451.91 1661.11 1449.22 Q1658.82 1446.53 1654.89 1446.53 M1666.49 1428.21 L1666.49 1433.54 Q1664.29 1432.5 1662.04 1431.95 Q1659.81 1431.4 1657.61 1431.4 Q1651.82 1431.4 1648.75 1435.3 Q1645.72 1439.21 1645.28 1447.11 Q1646.99 1444.59 1649.56 1443.26 Q1652.14 1441.9 1655.24 1441.9 Q1661.75 1441.9 1665.51 1445.87 Q1669.3 1449.8 1669.3 1456.6 Q1669.3 1463.26 1665.36 1467.28 Q1661.43 1471.3 1654.89 1471.3 Q1647.39 1471.3 1643.43 1465.57 Q1639.47 1459.81 1639.47 1448.9 Q1639.47 1438.66 1644.33 1432.58 Q1649.19 1426.48 1657.38 1426.48 Q1659.58 1426.48 1661.8 1426.91 Q1664.06 1427.35 1666.49 1428.21 Z" fill="#000000" fill-rule="nonzero" fill-opacity="1"></path><path clip-path="url(#clip190)" d="M1691.87 1431.11 Q1687.35 1431.11 1685.07 1435.56 Q1682.81 1439.99 1682.81 1448.9 Q1682.81 1457.79 1685.07 1462.24 Q1687.35 1466.67 1691.87 1466.67 Q1696.41 1466.67 1698.67 1462.24 Q1700.95 1457.79 1700.95 1448.9 Q1700.95 1439.99 1698.67 1435.56 Q1696.41 1431.11 1691.87 1431.11 M1691.87 1426.48 Q1699.13 1426.48 1702.95 1432.24 Q1706.8 1437.97 1706.8 1448.9 Q1706.8 1459.81 1702.95 1465.57 Q1699.13 1471.3 1691.87 1471.3 Q1684.61 1471.3 1680.76 1465.57 Q1676.94 1459.81 1676.94 1448.9 Q1676.94 1437.97 1680.76 1432.24 Q1684.61 1426.48 1691.87 1426.48 Z" fill="#000000" fill-rule="nonzero" fill-opacity="1"></path><path clip-path="url(#clip190)" d="M2057.98 1449.94 Q2053.82 1449.94 2051.41 1452.17 Q2049.04 1454.4 2049.04 1458.31 Q2049.04 1462.21 2051.41 1464.44 Q2053.82 1466.67 2057.98 1466.67 Q2062.15 1466.67 2064.55 1464.44 Q2066.95 1462.18 2066.95 1458.31 Q2066.95 1454.4 2064.55 1452.17 Q2062.18 1449.94 2057.98 1449.94 M2052.14 1447.46 Q2048.38 1446.53 2046.26 1443.96 Q2044.18 1441.38 2044.18 1437.68 Q2044.18 1432.5 2047.85 1429.49 Q2051.56 1426.48 2057.98 1426.48 Q2064.43 1426.48 2068.11 1429.49 Q2071.78 1432.5 2071.78 1437.68 Q2071.78 1441.38 2069.67 1443.96 Q2067.59 1446.53 2063.86 1447.46 Q2068.08 1448.44 2070.42 1451.3 Q2072.8 1454.17 2072.8 1458.31 Q2072.8 1464.59 2068.95 1467.94 Q2065.13 1471.3 2057.98 1471.3 Q2050.84 1471.3 2046.99 1467.94 Q2043.17 1464.59 2043.17 1458.31 Q2043.17 1454.17 2045.54 1451.3 Q2047.91 1448.44 2052.14 1447.46 M2050 1438.23 Q2050 1441.58 2052.08 1443.46 Q2054.19 1445.34 2057.98 1445.34 Q2061.74 1445.34 2063.86 1443.46 Q2066 1441.58 2066 1438.23 Q2066 1434.87 2063.86 1432.99 Q2061.74 1431.11 2057.98 1431.11 Q2054.19 1431.11 2052.08 1432.99 Q2050 1434.87 2050 1438.23 Z" fill="#000000" fill-rule="nonzero" fill-opacity="1"></path><path clip-path="url(#clip190)" d="M2095.68 1431.11 Q2091.17 1431.11 2088.88 1435.56 Q2086.63 1439.99 2086.63 1448.9 Q2086.63 1457.79 2088.88 1462.24 Q2091.17 1466.67 2095.68 1466.67 Q2100.23 1466.67 2102.48 1462.24 Q2104.77 1457.79 2104.77 1448.9 Q2104.77 1439.99 2102.48 1435.56 Q2100.23 1431.11 2095.68 1431.11 M2095.68 1426.48 Q2102.95 1426.48 2106.77 1432.24 Q2110.62 1437.97 2110.62 1448.9 Q2110.62 1459.81 2106.77 1465.57 Q2102.95 1471.3 2095.68 1471.3 Q2088.42 1471.3 2084.57 1465.57 Q2080.75 1459.81 2080.75 1448.9 Q2080.75 1437.97 2084.57 1432.24 Q2088.42 1426.48 2095.68 1426.48 Z" fill="#000000" fill-rule="nonzero" fill-opacity="1"></path><path clip-path="url(#clip190)" d="M1161.44 1511.02 L1170.85 1511.02 L1186.96 1535.11 L1203.15 1511.02 L1212.56 1511.02 L1191.73 1542.14 L1213.95 1575.82 L1204.53 1575.82 L1186.31 1548.26 L1167.95 1575.82 L1158.48 1575.82 L1181.62 1541.23 L1161.44 1511.02 Z" fill="#000000" fill-rule="nonzero" fill-opacity="1"></path><path clip-path="url(#clip190)" d="M1272.55 1508.37 Q1266.73 1518.35 1263.91 1528.12 Q1261.09 1537.89 1261.09 1547.91 Q1261.09 1557.94 1263.91 1567.79 Q1266.77 1577.6 1272.55 1587.54 L1265.6 1587.54 Q1259.09 1577.34 1255.84 1567.49 Q1252.62 1557.63 1252.62 1547.91 Q1252.62 1538.23 1255.84 1528.42 Q1259.05 1518.62 1265.6 1508.37 L1272.55 1508.37 Z" fill="#000000" fill-rule="nonzero" fill-opacity="1"></path><path clip-path="url(#clip190)" d="M1325.89 1536.54 Q1328.88 1531.16 1333.05 1528.6 Q1337.22 1526.04 1342.86 1526.04 Q1350.45 1526.04 1354.58 1531.38 Q1358.7 1536.67 1358.7 1546.48 L1358.7 1575.82 L1350.67 1575.82 L1350.67 1546.74 Q1350.67 1539.75 1348.2 1536.37 Q1345.72 1532.98 1340.65 1532.98 Q1334.44 1532.98 1330.84 1537.1 Q1327.23 1541.23 1327.23 1548.35 L1327.23 1575.82 L1319.2 1575.82 L1319.2 1546.74 Q1319.2 1539.71 1316.73 1536.37 Q1314.26 1532.98 1309.09 1532.98 Q1302.97 1532.98 1299.37 1537.15 Q1295.77 1541.27 1295.77 1548.35 L1295.77 1575.82 L1287.74 1575.82 L1287.74 1527.21 L1295.77 1527.21 L1295.77 1534.76 Q1298.5 1530.29 1302.32 1528.16 Q1306.14 1526.04 1311.39 1526.04 Q1316.69 1526.04 1320.38 1528.73 Q1324.11 1531.42 1325.89 1536.54 Z" fill="#000000" fill-rule="nonzero" fill-opacity="1"></path><path clip-path="url(#clip190)" d="M1373.37 1508.37 L1380.32 1508.37 Q1386.83 1518.62 1390.04 1528.42 Q1393.29 1538.23 1393.29 1547.91 Q1393.29 1557.63 1390.04 1567.49 Q1386.83 1577.34 1380.32 1587.54 L1373.37 1587.54 Q1379.14 1577.6 1381.96 1567.79 Q1384.83 1557.94 1384.83 1547.91 Q1384.83 1537.89 1381.96 1528.12 Q1379.14 1518.35 1373.37 1508.37 Z" fill="#000000" fill-rule="nonzero" fill-opacity="1"></path><polyline clip-path="url(#clip192)" style="stroke:#000000; stroke-linecap:round; stroke-linejoin:round; stroke-width:2; stroke-opacity:0.1; fill:none" points="199.021,1359.05 2352.76,1359.05 "></polyline>
<polyline clip-path="url(#clip192)" style="stroke:#000000; stroke-linecap:round; stroke-linejoin:round; stroke-width:2; stroke-opacity:0.1; fill:none" points="199.021,1123.89 2352.76,1123.89 "></polyline>
<polyline clip-path="url(#clip192)" style="stroke:#000000; stroke-linecap:round; stroke-linejoin:round; stroke-width:2; stroke-opacity:0.1; fill:none" points="199.021,888.732 2352.76,888.732 "></polyline>
<polyline clip-path="url(#clip192)" style="stroke:#000000; stroke-linecap:round; stroke-linejoin:round; stroke-width:2; stroke-opacity:0.1; fill:none" points="199.021,653.573 2352.76,653.573 "></polyline>
<polyline clip-path="url(#clip192)" style="stroke:#000000; stroke-linecap:round; stroke-linejoin:round; stroke-width:2; stroke-opacity:0.1; fill:none" points="199.021,418.413 2352.76,418.413 "></polyline>
<polyline clip-path="url(#clip192)" style="stroke:#000000; stroke-linecap:round; stroke-linejoin:round; stroke-width:2; stroke-opacity:0.1; fill:none" points="199.021,183.253 2352.76,183.253 "></polyline>
<polyline clip-path="url(#clip190)" style="stroke:#000000; stroke-linecap:round; stroke-linejoin:round; stroke-width:4; stroke-opacity:1; fill:none" points="199.021,1397.26 199.021,47.2441 "></polyline>
<polyline clip-path="url(#clip190)" style="stroke:#000000; stroke-linecap:round; stroke-linejoin:round; stroke-width:4; stroke-opacity:1; fill:none" points="199.021,1359.05 217.919,1359.05 "></polyline>
<polyline clip-path="url(#clip190)" style="stroke:#000000; stroke-linecap:round; stroke-linejoin:round; stroke-width:4; stroke-opacity:1; fill:none" points="199.021,1123.89 217.919,1123.89 "></polyline>
<polyline clip-path="url(#clip190)" style="stroke:#000000; stroke-linecap:round; stroke-linejoin:round; stroke-width:4; stroke-opacity:1; fill:none" points="199.021,888.732 217.919,888.732 "></polyline>
<polyline clip-path="url(#clip190)" style="stroke:#000000; stroke-linecap:round; stroke-linejoin:round; stroke-width:4; stroke-opacity:1; fill:none" points="199.021,653.573 217.919,653.573 "></polyline>
<polyline clip-path="url(#clip190)" style="stroke:#000000; stroke-linecap:round; stroke-linejoin:round; stroke-width:4; stroke-opacity:1; fill:none" points="199.021,418.413 217.919,418.413 "></polyline>
<polyline clip-path="url(#clip190)" style="stroke:#000000; stroke-linecap:round; stroke-linejoin:round; stroke-width:4; stroke-opacity:1; fill:none" points="199.021,183.253 217.919,183.253 "></polyline>
<path clip-path="url(#clip190)" d="M148.091 1341.3 Q143.577 1341.3 141.291 1345.76 Q139.034 1350.18 139.034 1359.1 Q139.034 1367.98 141.291 1372.43 Q143.577 1376.86 148.091 1376.86 Q152.634 1376.86 154.891 1372.43 Q157.177 1367.98 157.177 1359.1 Q157.177 1350.18 154.891 1345.76 Q152.634 1341.3 148.091 1341.3 M148.091 1336.67 Q155.354 1336.67 159.173 1342.43 Q163.021 1348.16 163.021 1359.1 Q163.021 1370 159.173 1375.76 Q155.354 1381.49 148.091 1381.49 Q140.828 1381.49 136.98 1375.76 Q133.161 1370 133.161 1359.1 Q133.161 1348.16 136.98 1342.43 Q140.828 1336.67 148.091 1336.67 Z" fill="#000000" fill-rule="nonzero" fill-opacity="1"></path><path clip-path="url(#clip190)" d="M138.137 1140.57 L147.686 1140.57 L147.686 1107.62 L137.298 1109.7 L137.298 1104.38 L147.628 1102.29 L153.473 1102.29 L153.473 1140.57 L163.021 1140.57 L163.021 1145.49 L138.137 1145.49 L138.137 1140.57 Z" fill="#000000" fill-rule="nonzero" fill-opacity="1"></path><path clip-path="url(#clip190)" d="M142.622 905.414 L163.021 905.414 L163.021 910.332 L135.591 910.332 L135.591 905.414 Q138.919 901.97 144.648 896.183 Q150.406 890.367 151.881 888.689 Q154.688 885.535 155.788 883.365 Q156.916 881.166 156.916 879.054 Q156.916 875.61 154.486 873.44 Q152.084 871.27 148.207 871.27 Q145.458 871.27 142.391 872.225 Q139.353 873.18 135.88 875.119 L135.88 869.216 Q139.41 867.798 142.478 867.075 Q145.545 866.351 148.091 866.351 Q154.804 866.351 158.797 869.708 Q162.79 873.064 162.79 878.678 Q162.79 881.34 161.777 883.741 Q160.793 886.114 158.16 889.355 Q157.437 890.194 153.56 894.216 Q149.682 898.209 142.622 905.414 Z" fill="#000000" fill-rule="nonzero" fill-opacity="1"></path><path clip-path="url(#clip190)" d="M154.109 651.88 Q158.305 652.777 160.649 655.613 Q163.021 658.448 163.021 662.615 Q163.021 669.01 158.623 672.511 Q154.225 676.012 146.123 676.012 Q143.404 676.012 140.51 675.462 Q137.645 674.941 134.578 673.871 L134.578 668.228 Q137.009 669.646 139.902 670.37 Q142.796 671.093 145.95 671.093 Q151.447 671.093 154.312 668.923 Q157.206 666.753 157.206 662.615 Q157.206 658.796 154.515 656.654 Q151.853 654.484 147.078 654.484 L142.044 654.484 L142.044 649.681 L147.31 649.681 Q151.621 649.681 153.907 647.974 Q156.193 646.238 156.193 642.997 Q156.193 639.669 153.82 637.904 Q151.476 636.11 147.078 636.11 Q144.677 636.11 141.928 636.631 Q139.179 637.152 135.88 638.252 L135.88 633.043 Q139.208 632.117 142.101 631.654 Q145.024 631.192 147.599 631.192 Q154.254 631.192 158.131 634.23 Q162.009 637.239 162.009 642.389 Q162.009 645.977 159.954 648.466 Q157.9 650.925 154.109 651.88 Z" fill="#000000" fill-rule="nonzero" fill-opacity="1"></path><path clip-path="url(#clip190)" d="M151.042 401.906 L136.286 424.967 L151.042 424.967 L151.042 401.906 M149.509 396.813 L156.858 396.813 L156.858 424.967 L163.021 424.967 L163.021 429.828 L156.858 429.828 L156.858 440.013 L151.042 440.013 L151.042 429.828 L131.54 429.828 L131.54 424.186 L149.509 396.813 Z" fill="#000000" fill-rule="nonzero" fill-opacity="1"></path><path clip-path="url(#clip190)" d="M136.893 161.653 L159.839 161.653 L159.839 166.572 L142.246 166.572 L142.246 177.163 Q143.519 176.729 144.792 176.526 Q146.066 176.295 147.339 176.295 Q154.572 176.295 158.797 180.259 Q163.021 184.223 163.021 190.993 Q163.021 197.967 158.681 201.844 Q154.341 205.692 146.442 205.692 Q143.722 205.692 140.886 205.23 Q138.079 204.767 135.07 203.841 L135.07 197.967 Q137.674 199.385 140.452 200.079 Q143.23 200.774 146.326 200.774 Q151.332 200.774 154.254 198.14 Q157.177 195.507 157.177 190.993 Q157.177 186.48 154.254 183.847 Q151.332 181.213 146.326 181.213 Q143.982 181.213 141.638 181.734 Q139.324 182.255 136.893 183.355 L136.893 161.653 Z" fill="#000000" fill-rule="nonzero" fill-opacity="1"></path><path clip-path="url(#clip190)" d="M11.3002 837.768 L11.3002 828.349 L37.9493 810.381 L11.3002 792.542 L11.3002 783.124 L45.2409 806.041 L76.1002 806.041 L76.1002 814.851 L45.2409 814.851 L11.3002 837.768 Z" fill="#000000" fill-rule="nonzero" fill-opacity="1"></path><path clip-path="url(#clip190)" d="M8.6526 727.482 Q18.6352 733.298 28.4008 736.119 Q38.1663 738.94 48.1923 738.94 Q58.2183 738.94 68.0707 736.119 Q77.8797 733.255 87.8188 727.482 L87.8188 734.426 Q77.6192 740.937 67.7669 744.192 Q57.9145 747.404 48.1923 747.404 Q38.5136 747.404 28.7046 744.192 Q18.8956 740.98 8.6526 734.426 L8.6526 727.482 Z" fill="#000000" fill-rule="nonzero" fill-opacity="1"></path><path clip-path="url(#clip190)" d="M36.8209 674.14 Q31.4389 671.145 28.8782 666.979 Q26.3174 662.812 26.3174 657.17 Q26.3174 649.574 31.656 645.451 Q36.9511 641.328 46.76 641.328 L76.1002 641.328 L76.1002 649.357 L47.0205 649.357 Q40.0326 649.357 36.6472 651.831 Q33.2618 654.305 33.2618 659.383 Q33.2618 665.59 37.3851 669.192 Q41.5083 672.795 48.6263 672.795 L76.1002 672.795 L76.1002 680.824 L47.0205 680.824 Q39.9892 680.824 36.6472 683.298 Q33.2618 685.772 33.2618 690.937 Q33.2618 697.057 37.4285 700.659 Q41.5517 704.262 48.6263 704.262 L76.1002 704.262 L76.1002 712.291 L27.4893 712.291 L27.4893 704.262 L35.0413 704.262 Q30.5709 701.527 28.4442 697.708 Q26.3174 693.888 26.3174 688.637 Q26.3174 683.342 29.0084 679.652 Q31.6994 675.92 36.8209 674.14 Z" fill="#000000" fill-rule="nonzero" fill-opacity="1"></path><path clip-path="url(#clip190)" d="M8.6526 626.658 L8.6526 619.713 Q18.8956 613.203 28.7046 609.991 Q38.5136 606.736 48.1923 606.736 Q57.9145 606.736 67.7669 609.991 Q77.6192 613.203 87.8188 619.713 L87.8188 626.658 Q77.8797 620.885 68.0707 618.064 Q58.2183 615.2 48.1923 615.2 Q38.1663 615.2 28.4008 618.064 Q18.6352 620.885 8.6526 626.658 Z" fill="#000000" fill-rule="nonzero" fill-opacity="1"></path><polyline clip-path="url(#clip192)" style="stroke:#009af9; stroke-linecap:round; stroke-linejoin:round; stroke-width:4; stroke-opacity:1; fill:none" points="259.976,1359.05 280.689,1358.27 301.926,1355.97 323.651,1351.37 345.812,1343.64 368.36,1331.86 391.246,1315.08 414.42,1292.3 437.829,1262.49 461.427,1225.23 485.176,1180.98 509.05,1130.27 533.024,1073.7 557.085,1011.99 581.223,945.986 605.438,876.597 629.732,804.805 654.114,731.639 678.595,658.162 703.188,585.464 727.907,514.657 752.764,446.868 777.771,383.233 802.932,324.791 828.245,272.304 853.701,226.297 879.285,187.062 904.981,154.677 930.77,129.018 956.634,109.78 982.556,96.5073 1008.52,88.6199 1034.52,85.4521 1060.55,86.286 1086.59,90.3862 1112.65,97.0296 1138.72,105.53 1164.8,115.259 1190.9,125.655 1217.01,136.234 1243.13,146.592 1269.26,156.407 1295.4,165.429 1321.56,173.484 1347.72,180.46 1373.89,186.304 1400.07,191.01 1426.26,194.615 1452.46,197.187 1478.65,198.818 1504.86,199.615 1531.07,199.698 1557.28,199.188 1583.49,198.208 1609.71,196.873 1635.93,195.291 1662.15,193.559 1688.37,191.761 1714.6,189.972 1740.83,188.248 1767.05,186.638 1793.29,185.174 1819.52,183.882 1845.75,182.775 1871.98,181.859 1898.22,181.133 1924.45,180.592 1950.69,180.226 1976.93,180.022 2003.17,179.967 2029.4,180.046 2055.64,180.247 2081.88,180.555 2108.12,180.96 2134.36,181.451 2160.6,182.02 2186.84,182.661 2213.08,183.368 2239.32,184.138 2265.56,184.968 2291.8,185.857 "></polyline>
<path clip-path="url(#clip190)" d="M270.813 195.925 L538.616 195.925 L538.616 92.2446 L270.813 92.2446  Z" fill="#ffffff" fill-rule="evenodd" fill-opacity="1"></path>
<polyline clip-path="url(#clip190)" style="stroke:#000000; stroke-linecap:round; stroke-linejoin:round; stroke-width:4; stroke-opacity:1; fill:none" points="270.813,195.925 538.616,195.925 538.616,92.2446 270.813,92.2446 270.813,195.925 "></polyline>
<polyline clip-path="url(#clip190)" style="stroke:#009af9; stroke-linecap:round; stroke-linejoin:round; stroke-width:4; stroke-opacity:1; fill:none" points="294.743,144.085 438.325,144.085 "></polyline>
<path clip-path="url(#clip190)" d="M476.098 163.772 Q474.293 168.402 472.58 169.814 Q470.867 171.226 467.996 171.226 L464.594 171.226 L464.594 167.661 L467.094 167.661 Q468.853 167.661 469.825 166.828 Q470.797 165.994 471.978 162.892 L472.742 160.948 L462.256 135.439 L466.77 135.439 L474.871 155.717 L482.973 135.439 L487.487 135.439 L476.098 163.772 Z" fill="#000000" fill-rule="nonzero" fill-opacity="1"></path><path clip-path="url(#clip190)" d="M494.779 157.429 L502.418 157.429 L502.418 131.064 L494.107 132.731 L494.107 128.471 L502.371 126.805 L507.047 126.805 L507.047 157.429 L514.686 157.429 L514.686 161.365 L494.779 161.365 L494.779 157.429 Z" fill="#000000" fill-rule="nonzero" fill-opacity="1"></path></svg>