<svg xmlns="http://www.w3.org/2000/svg" xmlns:xlink="http://www.w3.org/1999/xlink" width="600" height="400" viewBox="0 0 2400 1600">
<defs>
  <clipPath id="clip430">
    <rect x="0" y="0" width="2400" height="1600"></rect>
  </clipPath>
</defs>
<path clip-path="url(#clip430)" d="M0 1600 L2400 1600 L2400 0 L0 0  Z" fill="#ffffff" fill-rule="evenodd" fill-opacity="1"></path>
<defs>
  <clipPath id="clip431">
    <rect x="480" y="0" width="1681" height="1600"></rect>
  </clipPath>
</defs>
<path clip-path="url(#clip430)" d="M232.499 1397.26 L2352.76 1397.26 L2352.76 47.2441 L232.499 47.2441  Z" fill="#ffffff" fill-rule="evenodd" fill-opacity="1"></path>
<defs>
  <clipPath id="clip432">
    <rect x="232" y="47" width="2121" height="1351"></rect>
  </clipPath>
</defs>
<polyline clip-path="url(#clip432)" style="stroke:#000000; stroke-linecap:round; stroke-linejoin:round; stroke-width:2; stroke-opacity:0.1; fill:none" points="292.507,1397.26 292.507,47.2441 "></polyline>
<polyline clip-path="url(#clip432)" style="stroke:#000000; stroke-linecap:round; stroke-linejoin:round; stroke-width:2; stroke-opacity:0.1; fill:none" points="792.567,1397.26 792.567,47.2441 "></polyline>
<polyline clip-path="url(#clip432)" style="stroke:#000000; stroke-linecap:round; stroke-linejoin:round; stroke-width:2; stroke-opacity:0.1; fill:none" points="1292.63,1397.26 1292.63,47.2441 "></polyline>
<polyline clip-path="url(#clip432)" style="stroke:#000000; stroke-linecap:round; stroke-linejoin:round; stroke-width:2; stroke-opacity:0.1; fill:none" points="1792.69,1397.26 1792.69,47.2441 "></polyline>
<polyline clip-path="url(#clip432)" style="stroke:#000000; stroke-linecap:round; stroke-linejoin:round; stroke-width:2; stroke-opacity:0.1; fill:none" points="2292.75,1397.26 2292.75,47.2441 "></polyline>
<polyline clip-path="url(#clip430)" style="stroke:#000000; stroke-linecap:round; stroke-linejoin:round; stroke-width:4; stroke-opacity:1; fill:none" points="232.499,1397.26 2352.76,1397.26 "></polyline>
<polyline clip-path="url(#clip430)" style="stroke:#000000; stroke-linecap:round; stroke-linejoin:round; stroke-width:4; stroke-opacity:1; fill:none" points="292.507,1397.26 292.507,1378.36 "></polyline>
<polyline clip-path="url(#clip430)" style="stroke:#000000; stroke-linecap:round; stroke-linejoin:round; stroke-width:4; stroke-opacity:1; fill:none" points="792.567,1397.26 792.567,1378.36 "></polyline>
<polyline clip-path="url(#clip430)" style="stroke:#000000; stroke-linecap:round; stroke-linejoin:round; stroke-width:4; stroke-opacity:1; fill:none" points="1292.63,1397.26 1292.63,1378.36 "></polyline>
<polyline clip-path="url(#clip430)" style="stroke:#000000; stroke-linecap:round; stroke-linejoin:round; stroke-width:4; stroke-opacity:1; fill:none" points="1792.69,1397.26 1792.69,1378.36 "></polyline>
<polyline clip-path="url(#clip430)" style="stroke:#000000; stroke-linecap:round; stroke-linejoin:round; stroke-width:4; stroke-opacity:1; fill:none" points="2292.75,1397.26 2292.75,1378.36 "></polyline>
<path clip-path="url(#clip430)" d="M292.507 1431.11 Q287.993 1431.11 285.707 1435.56 Q283.45 1439.99 283.45 1448.9 Q283.45 1457.79 285.707 1462.24 Q287.993 1466.67 292.507 1466.67 Q297.049 1466.67 299.306 1462.24 Q301.592 1457.79 301.592 1448.9 Q301.592 1439.99 299.306 1435.56 Q297.049 1431.11 292.507 1431.11 M292.507 1426.48 Q299.769 1426.48 303.589 1432.24 Q307.437 1437.97 307.437 1448.9 Q307.437 1459.81 303.589 1465.57 Q299.769 1471.3 292.507 1471.3 Q285.244 1471.3 281.396 1465.57 Q277.576 1459.81 277.576 1448.9 Q277.576 1437.97 281.396 1432.24 Q285.244 1426.48 292.507 1426.48 Z" fill="#000000" fill-rule="nonzero" fill-opacity="1"></path><path clip-path="url(#clip430)" d="M785.883 1465.54 L806.282 1465.54 L806.282 1470.46 L778.852 1470.46 L778.852 1465.54 Q782.179 1462.1 787.909 1456.31 Q793.667 1450.49 795.142 1448.82 Q797.949 1445.66 799.049 1443.49 Q800.177 1441.29 800.177 1439.18 Q800.177 1435.74 797.746 1433.57 Q795.345 1431.4 791.468 1431.4 Q788.719 1431.4 785.652 1432.35 Q782.613 1433.31 779.141 1435.25 L779.141 1429.34 Q782.671 1427.93 785.738 1427.2 Q788.806 1426.48 791.352 1426.48 Q798.065 1426.48 802.058 1429.84 Q806.051 1433.19 806.051 1438.8 Q806.051 1441.47 805.038 1443.87 Q804.054 1446.24 801.421 1449.48 Q800.698 1450.32 796.821 1454.34 Q792.943 1458.34 785.883 1465.54 Z" fill="#000000" fill-rule="nonzero" fill-opacity="1"></path><path clip-path="url(#clip430)" d="M1296.39 1432.35 L1281.63 1455.41 L1296.39 1455.41 L1296.39 1432.35 M1294.86 1427.26 L1302.21 1427.26 L1302.21 1455.41 L1308.37 1455.41 L1308.37 1460.27 L1302.21 1460.27 L1302.21 1470.46 L1296.39 1470.46 L1296.39 1460.27 L1276.89 1460.27 L1276.89 1454.63 L1294.86 1427.26 Z" fill="#000000" fill-rule="nonzero" fill-opacity="1"></path><path clip-path="url(#clip430)" d="M1793.19 1446.53 Q1789.26 1446.53 1786.94 1449.22 Q1784.66 1451.91 1784.66 1456.6 Q1784.66 1461.26 1786.94 1463.98 Q1789.26 1466.67 1793.19 1466.67 Q1797.13 1466.67 1799.42 1463.98 Q1801.73 1461.26 1801.73 1456.6 Q1801.73 1451.91 1799.42 1449.22 Q1797.13 1446.53 1793.19 1446.53 M1804.8 1428.21 L1804.8 1433.54 Q1802.6 1432.5 1800.34 1431.95 Q1798.11 1431.4 1795.91 1431.4 Q1790.13 1431.4 1787.06 1435.3 Q1784.02 1439.21 1783.59 1447.11 Q1785.3 1444.59 1787.87 1443.26 Q1790.45 1441.9 1793.54 1441.9 Q1800.05 1441.9 1803.81 1445.87 Q1807.6 1449.8 1807.6 1456.6 Q1807.6 1463.26 1803.67 1467.28 Q1799.73 1471.3 1793.19 1471.3 Q1785.7 1471.3 1781.74 1465.57 Q1777.77 1459.81 1777.77 1448.9 Q1777.77 1438.66 1782.63 1432.58 Q1787.49 1426.48 1795.68 1426.48 Q1797.88 1426.48 1800.11 1426.91 Q1802.37 1427.35 1804.8 1428.21 Z" fill="#000000" fill-rule="nonzero" fill-opacity="1"></path><path clip-path="url(#clip430)" d="M2292.75 1449.94 Q2288.58 1449.94 2286.18 1452.17 Q2283.81 1454.4 2283.81 1458.31 Q2283.81 1462.21 2286.18 1464.44 Q2288.58 1466.67 2292.75 1466.67 Q2296.92 1466.67 2299.32 1464.44 Q2301.72 1462.18 2301.72 1458.31 Q2301.72 1454.4 2299.32 1452.17 Q2296.94 1449.94 2292.75 1449.94 M2286.9 1447.46 Q2283.14 1446.53 2281.03 1443.96 Q2278.95 1441.38 2278.95 1437.68 Q2278.95 1432.5 2282.62 1429.49 Q2286.33 1426.48 2292.75 1426.48 Q2299.2 1426.48 2302.88 1429.49 Q2306.55 1432.5 2306.55 1437.68 Q2306.55 1441.38 2304.44 1443.96 Q2302.36 1446.53 2298.62 1447.46 Q2302.85 1448.44 2305.19 1451.3 Q2307.56 1454.17 2307.56 1458.31 Q2307.56 1464.59 2303.72 1467.94 Q2299.9 1471.3 2292.75 1471.3 Q2285.6 1471.3 2281.75 1467.94 Q2277.93 1464.59 2277.93 1458.31 Q2277.93 1454.17 2280.31 1451.3 Q2282.68 1448.44 2286.9 1447.46 M2284.76 1438.23 Q2284.76 1441.58 2286.85 1443.46 Q2288.96 1445.34 2292.75 1445.34 Q2296.51 1445.34 2298.62 1443.46 Q2300.76 1441.58 2300.76 1438.23 Q2300.76 1434.87 2298.62 1432.99 Q2296.51 1431.11 2292.75 1431.11 Q2288.96 1431.11 2286.85 1432.99 Q2284.76 1434.87 2284.76 1438.23 Z" fill="#000000" fill-rule="nonzero" fill-opacity="1"></path><path clip-path="url(#clip430)" d="M1139.16 1513.41 L1139.16 1527.21 L1155.61 1527.21 L1155.61 1533.42 L1139.16 1533.42 L1139.16 1559.8 Q1139.16 1565.75 1140.76 1567.44 Q1142.41 1569.14 1147.4 1569.14 L1155.61 1569.14 L1155.61 1575.82 L1147.4 1575.82 Q1138.16 1575.82 1134.64 1572.39 Q1131.13 1568.92 1131.13 1559.8 L1131.13 1533.42 L1125.27 1533.42 L1125.27 1527.21 L1131.13 1527.21 L1131.13 1513.41 L1139.16 1513.41 Z" fill="#000000" fill-rule="nonzero" fill-opacity="1"></path><path clip-path="url(#clip430)" d="M1166.11 1527.21 L1174.1 1527.21 L1174.1 1575.82 L1166.11 1575.82 L1166.11 1527.21 M1166.11 1508.29 L1174.1 1508.29 L1174.1 1518.4 L1166.11 1518.4 L1166.11 1508.29 Z" fill="#000000" fill-rule="nonzero" fill-opacity="1"></path><path clip-path="url(#clip430)" d="M1228.65 1536.54 Q1231.65 1531.16 1235.81 1528.6 Q1239.98 1526.04 1245.62 1526.04 Q1253.22 1526.04 1257.34 1531.38 Q1261.46 1536.67 1261.46 1546.48 L1261.46 1575.82 L1253.44 1575.82 L1253.44 1546.74 Q1253.44 1539.75 1250.96 1536.37 Q1248.49 1532.98 1243.41 1532.98 Q1237.2 1532.98 1233.6 1537.1 Q1230 1541.23 1230 1548.35 L1230 1575.82 L1221.97 1575.82 L1221.97 1546.74 Q1221.97 1539.71 1219.49 1536.37 Q1217.02 1532.98 1211.86 1532.98 Q1205.74 1532.98 1202.13 1537.15 Q1198.53 1541.27 1198.53 1548.35 L1198.53 1575.82 L1190.5 1575.82 L1190.5 1527.21 L1198.53 1527.21 L1198.53 1534.76 Q1201.27 1530.29 1205.08 1528.16 Q1208.9 1526.04 1214.16 1526.04 Q1219.45 1526.04 1223.14 1528.73 Q1226.87 1531.42 1228.65 1536.54 Z" fill="#000000" fill-rule="nonzero" fill-opacity="1"></path><path clip-path="url(#clip430)" d="M1318.97 1549.52 L1318.97 1553.42 L1282.25 1553.42 Q1282.78 1561.67 1287.2 1566.01 Q1291.67 1570.31 1299.62 1570.31 Q1304.22 1570.31 1308.51 1569.18 Q1312.85 1568.05 1317.11 1565.79 L1317.11 1573.35 Q1312.81 1575.17 1308.3 1576.12 Q1303.78 1577.08 1299.14 1577.08 Q1287.51 1577.08 1280.69 1570.31 Q1273.92 1563.54 1273.92 1551.99 Q1273.92 1540.06 1280.34 1533.07 Q1286.81 1526.04 1297.75 1526.04 Q1307.56 1526.04 1313.24 1532.37 Q1318.97 1538.67 1318.97 1549.52 M1310.99 1547.17 Q1310.9 1540.62 1307.3 1536.71 Q1303.74 1532.81 1297.84 1532.81 Q1291.15 1532.81 1287.12 1536.58 Q1283.12 1540.36 1282.51 1547.22 L1310.99 1547.17 Z" fill="#000000" fill-rule="nonzero" fill-opacity="1"></path><path clip-path="url(#clip430)" d="M1379.52 1508.37 Q1373.7 1518.35 1370.88 1528.12 Q1368.06 1537.89 1368.06 1547.91 Q1368.06 1557.94 1370.88 1567.79 Q1373.75 1577.6 1379.52 1587.54 L1372.58 1587.54 Q1366.06 1577.34 1362.81 1567.49 Q1359.6 1557.63 1359.6 1547.91 Q1359.6 1538.23 1362.81 1528.42 Q1366.02 1518.62 1372.58 1508.37 L1379.52 1508.37 Z" fill="#000000" fill-rule="nonzero" fill-opacity="1"></path><path clip-path="url(#clip430)" d="M1426 1528.64 L1426 1536.19 Q1422.62 1534.46 1418.97 1533.59 Q1415.33 1532.72 1411.42 1532.72 Q1405.47 1532.72 1402.48 1534.54 Q1399.53 1536.37 1399.53 1540.01 Q1399.53 1542.79 1401.65 1544.4 Q1403.78 1545.96 1410.21 1547.39 L1412.94 1548 Q1421.45 1549.82 1425.01 1553.16 Q1428.61 1556.46 1428.61 1562.41 Q1428.61 1569.18 1423.23 1573.13 Q1417.89 1577.08 1408.51 1577.08 Q1404.61 1577.08 1400.35 1576.3 Q1396.14 1575.56 1391.46 1574.04 L1391.46 1565.79 Q1395.88 1568.09 1400.18 1569.27 Q1404.48 1570.39 1408.69 1570.39 Q1414.33 1570.39 1417.37 1568.48 Q1420.4 1566.53 1420.4 1563.02 Q1420.4 1559.76 1418.19 1558.02 Q1416.02 1556.29 1408.6 1554.68 L1405.82 1554.03 Q1398.4 1552.47 1395.1 1549.26 Q1391.8 1546 1391.8 1540.36 Q1391.8 1533.5 1396.66 1529.77 Q1401.52 1526.04 1410.47 1526.04 Q1414.89 1526.04 1418.8 1526.69 Q1422.71 1527.34 1426 1528.64 Z" fill="#000000" fill-rule="nonzero" fill-opacity="1"></path><path clip-path="url(#clip430)" d="M1440.07 1508.37 L1447.01 1508.37 Q1453.52 1518.62 1456.73 1528.42 Q1459.99 1538.23 1459.99 1547.91 Q1459.99 1557.63 1456.73 1567.49 Q1453.52 1577.34 1447.01 1587.54 L1440.07 1587.54 Q1445.84 1577.6 1448.66 1567.79 Q1451.52 1557.94 1451.52 1547.91 Q1451.52 1537.89 1448.66 1528.12 Q1445.84 1518.35 1440.07 1508.37 Z" fill="#000000" fill-rule="nonzero" fill-opacity="1"></path><polyline clip-path="url(#clip432)" style="stroke:#000000; stroke-linecap:round; stroke-linejoin:round; stroke-width:2; stroke-opacity:0.1; fill:none" points="232.499,1359.05 2352.76,1359.05 "></polyline>
<polyline clip-path="url(#clip432)" style="stroke:#000000; stroke-linecap:round; stroke-linejoin:round; stroke-width:2; stroke-opacity:0.1; fill:none" points="232.499,934.21 2352.76,934.21 "></polyline>
<polyline clip-path="url(#clip432)" style="stroke:#000000; stroke-linecap:round; stroke-linejoin:round; stroke-width:2; stroke-opacity:0.1; fill:none" points="232.499,509.368 2352.76,509.368 "></polyline>
<polyline clip-path="url(#clip432)" style="stroke:#000000; stroke-linecap:round; stroke-linejoin:round; stroke-width:2; stroke-opacity:0.1; fill:none" points="232.499,84.5259 2352.76,84.5259 "></polyline>
<polyline clip-path="url(#clip430)" style="stroke:#000000; stroke-linecap:round; stroke-linejoin:round; stroke-width:4; stroke-opacity:1; fill:none" points="232.499,1397.26 232.499,47.2441 "></polyline>
<polyline clip-path="url(#clip430)" style="stroke:#000000; stroke-linecap:round; stroke-linejoin:round; stroke-width:4; stroke-opacity:1; fill:none" points="232.499,1359.05 251.397,1359.05 "></polyline>
<polyline clip-path="url(#clip430)" style="stroke:#000000; stroke-linecap:round; stroke-linejoin:round; stroke-width:4; stroke-opacity:1; fill:none" points="232.499,934.21 251.397,934.21 "></polyline>
<polyline clip-path="url(#clip430)" style="stroke:#000000; stroke-linecap:round; stroke-linejoin:round; stroke-width:4; stroke-opacity:1; fill:none" points="232.499,509.368 251.397,509.368 "></polyline>
<polyline clip-path="url(#clip430)" style="stroke:#000000; stroke-linecap:round; stroke-linejoin:round; stroke-width:4; stroke-opacity:1; fill:none" points="232.499,84.5259 251.397,84.5259 "></polyline>
<path clip-path="url(#clip430)" d="M132.379 1375.73 L141.928 1375.73 L141.928 1342.78 L131.54 1344.86 L131.54 1339.54 L141.87 1337.45 L147.715 1337.45 L147.715 1375.73 L157.263 1375.73 L157.263 1380.65 L132.379 1380.65 L132.379 1375.73 Z" fill="#000000" fill-rule="nonzero" fill-opacity="1"></path><path clip-path="url(#clip430)" d="M181.569 1341.3 Q177.055 1341.3 174.769 1345.76 Q172.512 1350.18 172.512 1359.1 Q172.512 1367.98 174.769 1372.43 Q177.055 1376.86 181.569 1376.86 Q186.112 1376.86 188.369 1372.43 Q190.654 1367.98 190.654 1359.1 Q190.654 1350.18 188.369 1345.76 Q186.112 1341.3 181.569 1341.3 M181.569 1336.67 Q188.832 1336.67 192.651 1342.43 Q196.499 1348.16 196.499 1359.1 Q196.499 1370 192.651 1375.76 Q188.832 1381.49 181.569 1381.49 Q174.306 1381.49 170.458 1375.76 Q166.638 1370 166.638 1359.1 Q166.638 1348.16 170.458 1342.43 Q174.306 1336.67 181.569 1336.67 Z" fill="#000000" fill-rule="nonzero" fill-opacity="1"></path><path clip-path="url(#clip430)" d="M133.913 950.891 L143.461 950.891 L143.461 917.934 L133.074 920.017 L133.074 914.693 L143.404 912.61 L149.248 912.61 L149.248 950.891 L158.797 950.891 L158.797 955.81 L133.913 955.81 L133.913 950.891 Z" fill="#000000" fill-rule="nonzero" fill-opacity="1"></path><path clip-path="url(#clip430)" d="M171.615 950.891 L181.164 950.891 L181.164 917.934 L170.776 920.017 L170.776 914.693 L181.106 912.61 L186.951 912.61 L186.951 950.891 L196.499 950.891 L196.499 955.81 L171.615 955.81 L171.615 950.891 Z" fill="#000000" fill-rule="nonzero" fill-opacity="1"></path><path clip-path="url(#clip430)" d="M134.376 526.049 L143.924 526.049 L143.924 493.092 L133.537 495.175 L133.537 489.851 L143.866 487.768 L149.711 487.768 L149.711 526.049 L159.26 526.049 L159.26 530.968 L134.376 530.968 L134.376 526.049 Z" fill="#000000" fill-rule="nonzero" fill-opacity="1"></path><path clip-path="url(#clip430)" d="M176.1 526.049 L196.499 526.049 L196.499 530.968 L169.069 530.968 L169.069 526.049 Q172.396 522.606 178.126 516.819 Q183.884 511.003 185.359 509.324 Q188.166 506.171 189.266 504 Q190.394 501.801 190.394 499.689 Q190.394 496.246 187.963 494.076 Q185.562 491.906 181.685 491.906 Q178.936 491.906 175.869 492.86 Q172.83 493.815 169.358 495.754 L169.358 489.851 Q172.888 488.433 175.955 487.71 Q179.023 486.987 181.569 486.987 Q188.282 486.987 192.275 490.343 Q196.268 493.7 196.268 499.313 Q196.268 501.975 195.255 504.377 Q194.271 506.749 191.638 509.99 Q190.915 510.829 187.038 514.851 Q183.16 518.844 176.1 526.049 Z" fill="#000000" fill-rule="nonzero" fill-opacity="1"></path><path clip-path="url(#clip430)" d="M133.189 101.207 L142.738 101.207 L142.738 68.2499 L132.35 70.3332 L132.35 65.0092 L142.68 62.9259 L148.525 62.9259 L148.525 101.207 L158.074 101.207 L158.074 106.126 L133.189 106.126 L133.189 101.207 Z" fill="#000000" fill-rule="nonzero" fill-opacity="1"></path><path clip-path="url(#clip430)" d="M187.587 82.8332 Q191.783 83.7302 194.127 86.5658 Q196.499 89.4014 196.499 93.5681 Q196.499 99.9627 192.101 103.464 Q187.703 106.965 179.601 106.965 Q176.881 106.965 173.988 106.415 Q171.123 105.894 168.056 104.824 L168.056 99.1815 Q170.487 100.599 173.38 101.323 Q176.274 102.046 179.428 102.046 Q184.925 102.046 187.79 99.8759 Q190.683 97.7058 190.683 93.5681 Q190.683 89.7486 187.992 87.6075 Q185.33 85.4373 180.556 85.4373 L175.521 85.4373 L175.521 80.6341 L180.788 80.6341 Q185.099 80.6341 187.385 78.9269 Q189.671 77.1908 189.671 73.9501 Q189.671 70.6226 187.298 68.8576 Q184.954 67.0636 180.556 67.0636 Q178.154 67.0636 175.406 67.5844 Q172.657 68.1052 169.358 69.2048 L169.358 63.9965 Q172.686 63.0706 175.579 62.6076 Q178.502 62.1446 181.077 62.1446 Q187.732 62.1446 191.609 65.1828 Q195.487 68.1921 195.487 73.3425 Q195.487 76.9304 193.432 79.4188 Q191.378 81.8783 187.587 82.8332 Z" fill="#000000" fill-rule="nonzero" fill-opacity="1"></path><path clip-path="url(#clip430)" d="M56.9162 861.227 L27.4893 861.227 L27.4893 853.241 L56.6124 853.241 Q63.5134 853.241 66.9856 850.55 Q70.4144 847.859 70.4144 842.477 Q70.4144 836.01 66.2912 832.277 Q62.1679 828.501 55.0499 828.501 L27.4893 828.501 L27.4893 820.515 L76.1002 820.515 L76.1002 828.501 L68.6349 828.501 Q73.062 831.409 75.2321 835.272 Q77.3588 839.092 77.3588 844.17 Q77.3588 852.546 72.1505 856.887 Q66.9422 861.227 56.9162 861.227 M26.3174 841.132 L26.3174 841.132 Z" fill="#000000" fill-rule="nonzero" fill-opacity="1"></path><path clip-path="url(#clip430)" d="M27.4893 763.658 L51.1437 781.236 L76.1002 762.747 L76.1002 772.165 L57.003 786.314 L76.1002 800.463 L76.1002 809.882 L50.6663 791.002 L27.4893 808.276 L27.4893 798.857 L44.8069 785.967 L27.4893 773.076 L27.4893 763.658 Z" fill="#000000" fill-rule="nonzero" fill-opacity="1"></path><path clip-path="url(#clip430)" d="M8.6526 704.023 Q18.6352 709.839 28.4008 712.66 Q38.1663 715.481 48.1923 715.481 Q58.2183 715.481 68.0707 712.66 Q77.8797 709.795 87.8188 704.023 L87.8188 710.967 Q77.6192 717.478 67.7669 720.733 Q57.9145 723.945 48.1923 723.945 Q38.5136 723.945 28.7046 720.733 Q18.8956 717.521 8.6526 710.967 L8.6526 704.023 Z" fill="#000000" fill-rule="nonzero" fill-opacity="1"></path><path clip-path="url(#clip430)" d="M36.8209 650.681 Q31.4389 647.686 28.8782 643.52 Q26.3174 639.353 26.3174 633.711 Q26.3174 626.115 31.656 621.992 Q36.9511 617.869 46.76 617.869 L76.1002 617.869 L76.1002 625.898 L47.0205 625.898 Q40.0326 625.898 36.6472 628.372 Q33.2618 630.846 33.2618 635.924 Q33.2618 642.131 37.3851 645.733 Q41.5083 649.336 48.6263 649.336 L76.1002 649.336 L76.1002 657.365 L47.0205 657.365 Q39.9892 657.365 36.6472 659.839 Q33.2618 662.313 33.2618 667.478 Q33.2618 673.598 37.4285 677.2 Q41.5517 680.803 48.6263 680.803 L76.1002 680.803 L76.1002 688.832 L27.4893 688.832 L27.4893 680.803 L35.0413 680.803 Q30.5709 678.068 28.4442 674.249 Q26.3174 670.429 26.3174 665.178 Q26.3174 659.883 29.0084 656.193 Q31.6994 652.461 36.8209 650.681 Z" fill="#000000" fill-rule="nonzero" fill-opacity="1"></path><path clip-path="url(#clip430)" d="M8.6526 603.199 L8.6526 596.254 Q18.8956 589.744 28.7046 586.532 Q38.5136 583.277 48.1923 583.277 Q57.9145 583.277 67.7669 586.532 Q77.6192 589.744 87.8188 596.254 L87.8188 603.199 Q77.8797 597.426 68.0707 594.605 Q58.2183 591.741 48.1923 591.741 Q38.1663 591.741 28.4008 594.605 Q18.6352 597.426 8.6526 603.199 Z" fill="#000000" fill-rule="nonzero" fill-opacity="1"></path><polyline clip-path="url(#clip432)" style="stroke:#009af9; stroke-linecap:round; stroke-linejoin:round; stroke-width:4; stroke-opacity:1; fill:none" points="292.507,1359.05 317.51,1248.59 342.513,1140.9 367.516,1043.39 392.519,955.059 417.522,875.037 442.525,802.524 467.528,736.798 492.531,677.213 517.534,623.189 542.537,574.204 567.54,529.789 592.543,489.521 617.546,453.011 642.549,419.901 667.552,389.851 692.555,362.535 717.558,337.642 742.561,314.875 767.564,293.981 792.567,274.734 817.57,256.935 842.573,240.421 867.576,225.061 892.579,210.763 917.582,197.474 942.585,185.186 967.588,173.929 992.591,163.774 1017.59,154.822 1042.6,147.169 1067.6,140.865 1092.6,135.834 1117.61,131.748 1142.61,127.8 1167.61,123.664 1192.62,119.532 1217.62,115.544 1242.62,111.814 1267.62,108.419 1292.63,105.408 1317.63,102.795 1342.63,100.574 1367.64,98.7169 1392.64,97.1883 1417.64,95.9443 1442.65,94.9399 1467.65,94.1309 1492.65,93.476 1517.65,92.9379 1542.66,92.47 1567.66,92.0339 1592.66,91.6037 1617.67,91.1649 1642.67,90.7134 1667.67,90.2522 1692.68,89.7894 1717.68,89.3351 1742.68,88.899 1767.69,88.4892 1792.69,88.1114 1817.69,87.7685 1842.69,87.4613 1867.7,87.1886 1892.7,86.9479 1917.7,86.7359 1942.71,86.5492 1967.71,86.3844 1992.71,86.2384 2017.72,86.1088 2042.72,85.9935 2067.72,85.8911 2092.72,85.8006 2117.73,85.7212 2142.73,85.6525 2167.73,85.5943 2192.74,85.5463 2217.74,85.5082 2242.74,85.48 2267.75,85.4613 2292.75,85.4521 "></polyline>
<path clip-path="url(#clip430)" d="M2017.62 1352.26 L2282.08 1352.26 L2282.08 1248.58 L2017.62 1248.58  Z" fill="#ffffff" fill-rule="evenodd" fill-opacity="1"></path>
<polyline clip-path="url(#clip430)" style="stroke:#000000; stroke-linecap:round; stroke-linejoin:round; stroke-width:4; stroke-opacity:1; fill:none" points="2017.62,1352.26 2282.08,1352.26 2282.08,1248.58 2017.62,1248.58 2017.62,1352.26 "></polyline>
<polyline clip-path="url(#clip430)" style="stroke:#009af9; stroke-linecap:round; stroke-linejoin:round; stroke-width:4; stroke-opacity:1; fill:none" points="2041.18,1300.42 2182.53,1300.42 "></polyline>
<path clip-path="url(#clip430)" d="M2219.93 1320.11 Q2218.13 1324.74 2216.42 1326.15 Q2214.7 1327.56 2211.83 1327.56 L2208.43 1327.56 L2208.43 1324 L2210.93 1324 Q2212.69 1324 2213.66 1323.16 Q2214.63 1322.33 2215.81 1319.23 L2216.58 1317.28 L2206.09 1291.77 L2210.61 1291.77 L2218.71 1312.05 L2226.81 1291.77 L2231.32 1291.77 L2219.93 1320.11 Z" fill="#000000" fill-rule="nonzero" fill-opacity="1"></path><path clip-path="url(#clip430)" d="M2238.61 1313.76 L2246.25 1313.76 L2246.25 1287.4 L2237.94 1289.07 L2237.94 1284.81 L2246.21 1283.14 L2250.88 1283.14 L2250.88 1313.76 L2258.52 1313.76 L2258.52 1317.7 L2238.61 1317.7 L2238.61 1313.76 Z" fill="#000000" fill-rule="nonzero" fill-opacity="1"></path></svg>