<svg xmlns="http://www.w3.org/2000/svg" xmlns:xlink="http://www.w3.org/1999/xlink" width="600" height="350" viewBox="0 0 2400 1400">
<defs>
  <clipPath id="clip350">
    <rect x="0" y="0" width="2400" height="1400"></rect>
  </clipPath>
</defs>
<path clip-path="url(#clip350)" d="M0 1400 L2400 1400 L2400 0 L0 0  Z" fill="#ffffff" fill-rule="evenodd" fill-opacity="1"></path>
<defs>
  <clipPath id="clip351">
    <rect x="480" y="0" width="1681" height="1400"></rect>
  </clipPath>
</defs>
<path clip-path="url(#clip350)" d="M237.189 1212.76 L2352.76 1212.76 L2352.76 47.2441 L237.189 47.2441  Z" fill="#ffffff" fill-rule="evenodd" fill-opacity="1"></path>
<defs>
  <clipPath id="clip352">
    <rect x="237" y="47" width="2117" height="1167"></rect>
  </clipPath>
</defs>
<polyline clip-path="url(#clip352)" style="stroke:#000000; stroke-linecap:round; stroke-linejoin:round; stroke-width:2; stroke-opacity:0.1; fill:none" points="496.039,1212.76 496.039,47.2441 "></polyline>
<polyline clip-path="url(#clip352)" style="stroke:#000000; stroke-linecap:round; stroke-linejoin:round; stroke-width:2; stroke-opacity:0.1; fill:none" points="893.992,1212.76 893.992,47.2441 "></polyline>
<polyline clip-path="url(#clip352)" style="stroke:#000000; stroke-linecap:round; stroke-linejoin:round; stroke-width:2; stroke-opacity:0.1; fill:none" points="1291.94,1212.76 1291.94,47.2441 "></polyline>
<polyline clip-path="url(#clip352)" style="stroke:#000000; stroke-linecap:round; stroke-linejoin:round; stroke-width:2; stroke-opacity:0.1; fill:none" points="1689.9,1212.76 1689.9,47.2441 "></polyline>
<polyline clip-path="url(#clip352)" style="stroke:#000000; stroke-linecap:round; stroke-linejoin:round; stroke-width:2; stroke-opacity:0.1; fill:none" points="2087.85,1212.76 2087.85,47.2441 "></polyline>
<polyline clip-path="url(#clip350)" style="stroke:#000000; stroke-linecap:round; stroke-linejoin:round; stroke-width:4; stroke-opacity:1; fill:none" points="237.189,1212.76 2352.76,1212.76 "></polyline>
<polyline clip-path="url(#clip350)" style="stroke:#000000; stroke-linecap:round; stroke-linejoin:round; stroke-width:4; stroke-opacity:1; fill:none" points="496.039,1212.76 496.039,1193.86 "></polyline>
<polyline clip-path="url(#clip350)" style="stroke:#000000; stroke-linecap:round; stroke-linejoin:round; stroke-width:4; stroke-opacity:1; fill:none" points="893.992,1212.76 893.992,1193.86 "></polyline>
<polyline clip-path="url(#clip350)" style="stroke:#000000; stroke-linecap:round; stroke-linejoin:round; stroke-width:4; stroke-opacity:1; fill:none" points="1291.94,1212.76 1291.94,1193.86 "></polyline>
<polyline clip-path="url(#clip350)" style="stroke:#000000; stroke-linecap:round; stroke-linejoin:round; stroke-width:4; stroke-opacity:1; fill:none" points="1689.9,1212.76 1689.9,1193.86 "></polyline>
<polyline clip-path="url(#clip350)" style="stroke:#000000; stroke-linecap:round; stroke-linejoin:round; stroke-width:4; stroke-opacity:1; fill:none" points="2087.85,1212.76 2087.85,1193.86 "></polyline>
<path clip-path="url(#clip350)" d="M496.039 1246.61 Q491.526 1246.61 489.24 1251.06 Q486.983 1255.49 486.983 1264.4 Q486.983 1273.29 489.24 1277.74 Q491.526 1282.17 496.039 1282.17 Q500.582 1282.17 502.839 1277.74 Q505.125 1273.29 505.125 1264.4 Q505.125 1255.49 502.839 1251.06 Q500.582 1246.61 496.039 1246.61 M496.039 1241.98 Q503.302 1241.98 507.122 1247.74 Q510.97 1253.47 510.97 1264.4 Q510.97 1275.31 507.122 1281.07 Q503.302 1286.8 496.039 1286.8 Q488.777 1286.8 484.928 1281.07 Q481.109 1275.31 481.109 1264.4 Q481.109 1253.47 484.928 1247.74 Q488.777 1241.98 496.039 1241.98 Z" fill="#000000" fill-rule="nonzero" fill-opacity="1"></path><path clip-path="url(#clip350)" d="M867.459 1281.04 L887.858 1281.04 L887.858 1285.96 L860.427 1285.96 L860.427 1281.04 Q863.755 1277.6 869.484 1271.81 Q875.242 1265.99 876.718 1264.32 Q879.525 1261.16 880.624 1258.99 Q881.753 1256.79 881.753 1254.68 Q881.753 1251.24 879.322 1249.07 Q876.92 1246.9 873.043 1246.9 Q870.294 1246.9 867.227 1247.85 Q864.189 1248.81 860.717 1250.75 L860.717 1244.84 Q864.247 1243.43 867.314 1242.7 Q870.381 1241.98 872.927 1241.98 Q879.64 1241.98 883.633 1245.34 Q887.626 1248.69 887.626 1254.3 Q887.626 1256.97 886.614 1259.37 Q885.63 1261.74 882.997 1264.98 Q882.273 1265.82 878.396 1269.84 Q874.519 1273.84 867.459 1281.04 Z" fill="#000000" fill-rule="nonzero" fill-opacity="1"></path><path clip-path="url(#clip350)" d="M912.626 1246.61 Q908.112 1246.61 905.827 1251.06 Q903.57 1255.49 903.57 1264.4 Q903.57 1273.29 905.827 1277.74 Q908.112 1282.17 912.626 1282.17 Q917.169 1282.17 919.426 1277.74 Q921.712 1273.29 921.712 1264.4 Q921.712 1255.49 919.426 1251.06 Q917.169 1246.61 912.626 1246.61 M912.626 1241.98 Q919.889 1241.98 923.708 1247.74 Q927.557 1253.47 927.557 1264.4 Q927.557 1275.31 923.708 1281.07 Q919.889 1286.8 912.626 1286.8 Q905.364 1286.8 901.515 1281.07 Q897.696 1275.31 897.696 1264.4 Q897.696 1253.47 901.515 1247.74 Q905.364 1241.98 912.626 1241.98 Z" fill="#000000" fill-rule="nonzero" fill-opacity="1"></path><path clip-path="url(#clip350)" d="M1277.16 1247.85 L1262.4 1270.91 L1277.16 1270.91 L1277.16 1247.85 M1275.63 1242.76 L1282.97 1242.76 L1282.97 1270.91 L1289.14 1270.91 L1289.14 1275.77 L1282.97 1275.77 L1282.97 1285.96 L1277.16 1285.96 L1277.16 1275.77 L1257.66 1275.77 L1257.66 1270.13 L1275.63 1242.76 Z" fill="#000000" fill-rule="nonzero" fill-opacity="1"></path><path clip-path="url(#clip350)" d="M1311.3 1246.61 Q1306.79 1246.61 1304.5 1251.06 Q1302.25 1255.49 1302.25 1264.4 Q1302.25 1273.29 1304.5 1277.74 Q1306.79 1282.17 1311.3 1282.17 Q1315.85 1282.17 1318.1 1277.74 Q1320.39 1273.29 1320.39 1264.4 Q1320.39 1255.49 1318.1 1251.06 Q1315.85 1246.61 1311.3 1246.61 M1311.3 1241.98 Q1318.56 1241.98 1322.38 1247.74 Q1326.23 1253.47 1326.23 1264.4 Q1326.23 1275.31 1322.38 1281.07 Q1318.56 1286.8 1311.3 1286.8 Q1304.04 1286.8 1300.19 1281.07 Q1296.37 1275.31 1296.37 1264.4 Q1296.37 1253.47 1300.19 1247.74 Q1304.04 1241.98 1311.3 1241.98 Z" fill="#000000" fill-rule="nonzero" fill-opacity="1"></path><path clip-path="url(#clip350)" d="M1671.65 1262.03 Q1667.72 1262.03 1665.4 1264.72 Q1663.12 1267.41 1663.12 1272.1 Q1663.12 1276.76 1665.4 1279.48 Q1667.72 1282.17 1671.65 1282.17 Q1675.59 1282.17 1677.87 1279.48 Q1680.19 1276.76 1680.19 1272.1 Q1680.19 1267.41 1677.87 1264.72 Q1675.59 1262.03 1671.65 1262.03 M1683.26 1243.71 L1683.26 1249.04 Q1681.06 1248 1678.8 1247.45 Q1676.57 1246.9 1674.37 1246.9 Q1668.59 1246.9 1665.52 1250.8 Q1662.48 1254.71 1662.05 1262.61 Q1663.75 1260.09 1666.33 1258.76 Q1668.91 1257.4 1672 1257.4 Q1678.51 1257.4 1682.27 1261.37 Q1686.06 1265.3 1686.06 1272.1 Q1686.06 1278.76 1682.13 1282.78 Q1678.19 1286.8 1671.65 1286.8 Q1664.16 1286.8 1660.2 1281.07 Q1656.23 1275.31 1656.23 1264.4 Q1656.23 1254.16 1661.09 1248.08 Q1665.95 1241.98 1674.14 1241.98 Q1676.34 1241.98 1678.57 1242.41 Q1680.83 1242.85 1683.26 1243.71 Z" fill="#000000" fill-rule="nonzero" fill-opacity="1"></path><path clip-path="url(#clip350)" d="M1708.63 1246.61 Q1704.12 1246.61 1701.83 1251.06 Q1699.58 1255.49 1699.58 1264.4 Q1699.58 1273.29 1701.83 1277.74 Q1704.12 1282.17 1708.63 1282.17 Q1713.18 1282.17 1715.43 1277.74 Q1717.72 1273.29 1717.72 1264.4 Q1717.72 1255.49 1715.43 1251.06 Q1713.18 1246.61 1708.63 1246.61 M1708.63 1241.98 Q1715.9 1241.98 1719.71 1247.74 Q1723.56 1253.47 1723.56 1264.4 Q1723.56 1275.31 1719.71 1281.07 Q1715.9 1286.8 1708.63 1286.8 Q1701.37 1286.8 1697.52 1281.07 Q1693.7 1275.31 1693.7 1264.4 Q1693.7 1253.47 1697.52 1247.74 Q1701.37 1241.98 1708.63 1241.98 Z" fill="#000000" fill-rule="nonzero" fill-opacity="1"></path><path clip-path="url(#clip350)" d="M2068.94 1265.44 Q2064.77 1265.44 2062.37 1267.67 Q2060 1269.9 2060 1273.81 Q2060 1277.71 2062.37 1279.94 Q2064.77 1282.17 2068.94 1282.17 Q2073.11 1282.17 2075.51 1279.94 Q2077.91 1277.68 2077.91 1273.81 Q2077.91 1269.9 2075.51 1267.67 Q2073.14 1265.44 2068.94 1265.44 M2063.1 1262.96 Q2059.33 1262.03 2057.22 1259.46 Q2055.14 1256.88 2055.14 1253.18 Q2055.14 1248 2058.81 1244.99 Q2062.52 1241.98 2068.94 1241.98 Q2075.39 1241.98 2079.07 1244.99 Q2082.74 1248 2082.74 1253.18 Q2082.74 1256.88 2080.63 1259.46 Q2078.55 1262.03 2074.81 1262.96 Q2079.04 1263.94 2081.38 1266.8 Q2083.76 1269.67 2083.76 1273.81 Q2083.76 1280.09 2079.91 1283.44 Q2076.09 1286.8 2068.94 1286.8 Q2061.79 1286.8 2057.95 1283.44 Q2054.13 1280.09 2054.13 1273.81 Q2054.13 1269.67 2056.5 1266.8 Q2058.87 1263.94 2063.1 1262.96 M2060.95 1253.73 Q2060.95 1257.08 2063.04 1258.96 Q2065.15 1260.84 2068.94 1260.84 Q2072.7 1260.84 2074.81 1258.96 Q2076.96 1257.08 2076.96 1253.73 Q2076.96 1250.37 2074.81 1248.49 Q2072.7 1246.61 2068.94 1246.61 Q2065.15 1246.61 2063.04 1248.49 Q2060.95 1250.37 2060.95 1253.73 Z" fill="#000000" fill-rule="nonzero" fill-opacity="1"></path><path clip-path="url(#clip350)" d="M2106.64 1246.61 Q2102.13 1246.61 2099.84 1251.06 Q2097.59 1255.49 2097.59 1264.4 Q2097.59 1273.29 2099.84 1277.74 Q2102.13 1282.17 2106.64 1282.17 Q2111.19 1282.17 2113.44 1277.74 Q2115.73 1273.29 2115.73 1264.4 Q2115.73 1255.49 2113.44 1251.06 Q2111.19 1246.61 2106.64 1246.61 M2106.64 1241.98 Q2113.91 1241.98 2117.73 1247.74 Q2121.57 1253.47 2121.57 1264.4 Q2121.57 1275.31 2117.73 1281.07 Q2113.91 1286.8 2106.64 1286.8 Q2099.38 1286.8 2095.53 1281.07 Q2091.71 1275.31 2091.71 1264.4 Q2091.71 1253.47 2095.53 1247.74 Q2099.38 1241.98 2106.64 1241.98 Z" fill="#000000" fill-rule="nonzero" fill-opacity="1"></path><path clip-path="url(#clip350)" d="M1180.52 1326.52 L1189.94 1326.52 L1206.04 1350.61 L1222.23 1326.52 L1231.65 1326.52 L1210.81 1357.64 L1233.04 1391.32 L1223.62 1391.32 L1205.39 1363.76 L1187.03 1391.32 L1177.57 1391.32 L1200.7 1356.73 L1180.52 1326.52 Z" fill="#000000" fill-rule="nonzero" fill-opacity="1"></path><path clip-path="url(#clip350)" d="M1291.63 1323.87 Q1285.81 1333.85 1282.99 1343.62 Q1280.17 1353.39 1280.17 1363.41 Q1280.17 1373.44 1282.99 1383.29 Q1285.86 1393.1 1291.63 1403.04 L1284.69 1403.04 Q1278.18 1392.84 1274.92 1382.99 Q1271.71 1373.13 1271.71 1363.41 Q1271.71 1353.73 1274.92 1343.92 Q1278.13 1334.12 1284.69 1323.87 L1291.63 1323.87 Z" fill="#000000" fill-rule="nonzero" fill-opacity="1"></path><path clip-path="url(#clip350)" d="M1344.97 1352.04 Q1347.97 1346.66 1352.13 1344.1 Q1356.3 1341.54 1361.94 1341.54 Q1369.54 1341.54 1373.66 1346.88 Q1377.78 1352.17 1377.78 1361.98 L1377.78 1391.32 L1369.75 1391.32 L1369.75 1362.24 Q1369.75 1355.25 1367.28 1351.87 Q1364.81 1348.48 1359.73 1348.48 Q1353.52 1348.48 1349.92 1352.6 Q1346.32 1356.73 1346.32 1363.85 L1346.32 1391.32 L1338.29 1391.32 L1338.29 1362.24 Q1338.29 1355.21 1335.81 1351.87 Q1333.34 1348.48 1328.18 1348.48 Q1322.06 1348.48 1318.45 1352.65 Q1314.85 1356.77 1314.85 1363.85 L1314.85 1391.32 L1306.82 1391.32 L1306.82 1342.71 L1314.85 1342.71 L1314.85 1350.26 Q1317.58 1345.79 1321.4 1343.66 Q1325.22 1341.54 1330.48 1341.54 Q1335.77 1341.54 1339.46 1344.23 Q1343.19 1346.92 1344.97 1352.04 Z" fill="#000000" fill-rule="nonzero" fill-opacity="1"></path><path clip-path="url(#clip350)" d="M1392.45 1323.87 L1399.4 1323.87 Q1405.91 1334.12 1409.12 1343.92 Q1412.38 1353.73 1412.38 1363.41 Q1412.38 1373.13 1409.12 1382.99 Q1405.91 1392.84 1399.4 1403.04 L1392.45 1403.04 Q1398.23 1393.1 1401.05 1383.29 Q1403.91 1373.44 1403.91 1363.41 Q1403.91 1353.39 1401.05 1343.62 Q1398.23 1333.85 1392.45 1323.87 Z" fill="#000000" fill-rule="nonzero" fill-opacity="1"></path><polyline clip-path="url(#clip352)" style="stroke:#000000; stroke-linecap:round; stroke-linejoin:round; stroke-width:2; stroke-opacity:0.1; fill:none" points="237.189,1181.54 2352.76,1181.54 "></polyline>
<polyline clip-path="url(#clip352)" style="stroke:#000000; stroke-linecap:round; stroke-linejoin:round; stroke-width:2; stroke-opacity:0.1; fill:none" points="237.189,933.906 2352.76,933.906 "></polyline>
<polyline clip-path="url(#clip352)" style="stroke:#000000; stroke-linecap:round; stroke-linejoin:round; stroke-width:2; stroke-opacity:0.1; fill:none" points="237.189,686.268 2352.76,686.268 "></polyline>
<polyline clip-path="url(#clip352)" style="stroke:#000000; stroke-linecap:round; stroke-linejoin:round; stroke-width:2; stroke-opacity:0.1; fill:none" points="237.189,438.63 2352.76,438.63 "></polyline>
<polyline clip-path="url(#clip352)" style="stroke:#000000; stroke-linecap:round; stroke-linejoin:round; stroke-width:2; stroke-opacity:0.1; fill:none" points="237.189,190.991 2352.76,190.991 "></polyline>
<polyline clip-path="url(#clip350)" style="stroke:#000000; stroke-linecap:round; stroke-linejoin:round; stroke-width:4; stroke-opacity:1; fill:none" points="237.189,1212.76 237.189,47.2441 "></polyline>
<polyline clip-path="url(#clip350)" style="stroke:#000000; stroke-linecap:round; stroke-linejoin:round; stroke-width:4; stroke-opacity:1; fill:none" points="237.189,1181.54 256.086,1181.54 "></polyline>
<polyline clip-path="url(#clip350)" style="stroke:#000000; stroke-linecap:round; stroke-linejoin:round; stroke-width:4; stroke-opacity:1; fill:none" points="237.189,933.906 256.086,933.906 "></polyline>
<polyline clip-path="url(#clip350)" style="stroke:#000000; stroke-linecap:round; stroke-linejoin:round; stroke-width:4; stroke-opacity:1; fill:none" points="237.189,686.268 256.086,686.268 "></polyline>
<polyline clip-path="url(#clip350)" style="stroke:#000000; stroke-linecap:round; stroke-linejoin:round; stroke-width:4; stroke-opacity:1; fill:none" points="237.189,438.63 256.086,438.63 "></polyline>
<polyline clip-path="url(#clip350)" style="stroke:#000000; stroke-linecap:round; stroke-linejoin:round; stroke-width:4; stroke-opacity:1; fill:none" points="237.189,190.991 256.086,190.991 "></polyline>
<path clip-path="url(#clip350)" d="M123.44 1182.11 L160.535 1182.11 L160.535 1187.03 L123.44 1187.03 L123.44 1182.11 Z" fill="#000000" fill-rule="nonzero" fill-opacity="1"></path><path clip-path="url(#clip350)" d="M189.209 1165.04 L174.453 1188.1 L189.209 1188.1 L189.209 1165.04 M187.676 1159.94 L195.025 1159.94 L195.025 1188.1 L201.189 1188.1 L201.189 1192.96 L195.025 1192.96 L195.025 1203.14 L189.209 1203.14 L189.209 1192.96 L169.707 1192.96 L169.707 1187.32 L187.676 1159.94 Z" fill="#000000" fill-rule="nonzero" fill-opacity="1"></path><path clip-path="url(#clip350)" d="M124.858 934.47 L161.953 934.47 L161.953 939.389 L124.858 939.389 L124.858 934.47 Z" fill="#000000" fill-rule="nonzero" fill-opacity="1"></path><path clip-path="url(#clip350)" d="M192.277 932.213 Q196.472 933.11 198.816 935.946 Q201.189 938.781 201.189 942.948 Q201.189 949.343 196.79 952.844 Q192.392 956.345 184.291 956.345 Q181.571 956.345 178.677 955.795 Q175.813 955.274 172.745 954.204 L172.745 948.562 Q175.176 949.979 178.069 950.703 Q180.963 951.426 184.117 951.426 Q189.615 951.426 192.479 949.256 Q195.373 947.086 195.373 942.948 Q195.373 939.129 192.682 936.988 Q190.02 934.817 185.245 934.817 L180.211 934.817 L180.211 930.014 L185.477 930.014 Q189.788 930.014 192.074 928.307 Q194.36 926.571 194.36 923.33 Q194.36 920.003 191.987 918.238 Q189.644 916.444 185.245 916.444 Q182.844 916.444 180.095 916.964 Q177.346 917.485 174.048 918.585 L174.048 913.377 Q177.375 912.451 180.269 911.988 Q183.191 911.525 185.766 911.525 Q192.421 911.525 196.299 914.563 Q200.176 917.572 200.176 922.723 Q200.176 926.31 198.121 928.799 Q196.067 931.258 192.277 932.213 Z" fill="#000000" fill-rule="nonzero" fill-opacity="1"></path><path clip-path="url(#clip350)" d="M126.044 686.832 L163.139 686.832 L163.139 691.751 L126.044 691.751 L126.044 686.832 Z" fill="#000000" fill-rule="nonzero" fill-opacity="1"></path><path clip-path="url(#clip350)" d="M180.789 702.949 L201.189 702.949 L201.189 707.868 L173.758 707.868 L173.758 702.949 Q177.086 699.506 182.815 693.719 Q188.573 687.903 190.049 686.224 Q192.855 683.07 193.955 680.9 Q195.083 678.701 195.083 676.589 Q195.083 673.146 192.653 670.976 Q190.251 668.805 186.374 668.805 Q183.625 668.805 180.558 669.76 Q177.52 670.715 174.048 672.654 L174.048 666.751 Q177.578 665.333 180.645 664.61 Q183.712 663.886 186.258 663.886 Q192.971 663.886 196.964 667.243 Q200.957 670.599 200.957 676.213 Q200.957 678.875 199.944 681.276 Q198.961 683.649 196.327 686.89 Q195.604 687.729 191.727 691.751 Q187.85 695.744 180.789 702.949 Z" fill="#000000" fill-rule="nonzero" fill-opacity="1"></path><path clip-path="url(#clip350)" d="M125.581 439.194 L162.676 439.194 L162.676 444.113 L125.581 444.113 L125.581 439.194 Z" fill="#000000" fill-rule="nonzero" fill-opacity="1"></path><path clip-path="url(#clip350)" d="M176.304 455.311 L185.853 455.311 L185.853 422.354 L175.465 424.437 L175.465 419.113 L185.795 417.03 L191.64 417.03 L191.64 455.311 L201.189 455.311 L201.189 460.23 L176.304 460.23 L176.304 455.311 Z" fill="#000000" fill-rule="nonzero" fill-opacity="1"></path><path clip-path="url(#clip350)" d="M186.258 173.24 Q181.744 173.24 179.458 177.696 Q177.201 182.123 177.201 191.035 Q177.201 199.918 179.458 204.374 Q181.744 208.801 186.258 208.801 Q190.801 208.801 193.058 204.374 Q195.344 199.918 195.344 191.035 Q195.344 182.123 193.058 177.696 Q190.801 173.24 186.258 173.24 M186.258 168.61 Q193.521 168.61 197.34 174.368 Q201.189 180.097 201.189 191.035 Q201.189 201.943 197.34 207.701 Q193.521 213.43 186.258 213.43 Q178.995 213.43 175.147 207.701 Q171.328 201.943 171.328 191.035 Q171.328 180.097 175.147 174.368 Q178.995 168.61 186.258 168.61 Z" fill="#000000" fill-rule="nonzero" fill-opacity="1"></path><path clip-path="url(#clip350)" d="M3.20016 745.518 L3.20016 736.099 L29.8493 718.131 L3.20016 700.292 L3.20016 690.874 L37.1409 713.791 L68.0002 713.791 L68.0002 722.601 L37.1409 722.601 L3.20016 745.518 Z" fill="#000000" fill-rule="nonzero" fill-opacity="1"></path><path clip-path="url(#clip350)" d="M0.552602 635.232 Q10.5352 641.048 20.3008 643.869 Q30.0663 646.69 40.0923 646.69 Q50.1183 646.69 59.9707 643.869 Q69.7797 641.005 79.7188 635.232 L79.7188 642.176 Q69.5192 648.687 59.6669 651.942 Q49.8145 655.154 40.0923 655.154 Q30.4136 655.154 20.6046 651.942 Q10.7956 648.73 0.552602 642.176 L0.552602 635.232 Z" fill="#000000" fill-rule="nonzero" fill-opacity="1"></path><path clip-path="url(#clip350)" d="M28.7209 581.89 Q23.3389 578.895 20.7782 574.729 Q18.2174 570.562 18.2174 564.92 Q18.2174 557.324 23.556 553.201 Q28.8511 549.078 38.66 549.078 L68.0002 549.078 L68.0002 557.107 L38.9205 557.107 Q31.9326 557.107 28.5472 559.581 Q25.1618 562.055 25.1618 567.133 Q25.1618 573.34 29.2851 576.942 Q33.4083 580.545 40.5263 580.545 L68.0002 580.545 L68.0002 588.574 L38.9205 588.574 Q31.8892 588.574 28.5472 591.048 Q25.1618 593.522 25.1618 598.687 Q25.1618 604.807 29.3285 608.409 Q33.4517 612.012 40.5263 612.012 L68.0002 612.012 L68.0002 620.041 L19.3893 620.041 L19.3893 612.012 L26.9413 612.012 Q22.4709 609.277 20.3442 605.458 Q18.2174 601.638 18.2174 596.387 Q18.2174 591.092 20.9084 587.402 Q23.5994 583.67 28.7209 581.89 Z" fill="#000000" fill-rule="nonzero" fill-opacity="1"></path><path clip-path="url(#clip350)" d="M0.552602 534.408 L0.552602 527.463 Q10.7956 520.953 20.6046 517.741 Q30.4136 514.486 40.0923 514.486 Q49.8145 514.486 59.6669 517.741 Q69.5192 520.953 79.7188 527.463 L79.7188 534.408 Q69.7797 528.635 59.9707 525.814 Q50.1183 522.95 40.0923 522.95 Q30.0663 522.95 20.3008 525.814 Q10.5352 528.635 0.552602 534.408 Z" fill="#000000" fill-rule="nonzero" fill-opacity="1"></path><polyline clip-path="url(#clip352)" style="stroke:#009af9; stroke-linecap:round; stroke-linejoin:round; stroke-width:4; stroke-opacity:1; fill:none" points="297.063,190.991 317.478,190.395 338.397,188.94 359.772,186.586 381.561,183.489 403.724,179.989 426.226,176.606 449.037,174.016 472.128,173.027 495.472,174.539 519.043,179.492 542.813,188.818 566.755,203.381 590.84,223.914 615.039,250.966 639.325,284.836 663.671,325.512 688.061,372.606 712.484,425.358 736.936,482.928 761.419,544.377 785.941,608.681 810.511,674.753 835.143,741.456 859.854,807.624 884.657,872.068 909.567,933.582 934.595,990.948 959.746,1042.94 985.023,1088.34 1010.42,1125.91 1035.92,1154.45 1061.5,1172.75 1087.14,1179.77 1112.8,1175.35 1138.46,1159.9 1164.08,1133.97 1189.64,1098.28 1215.13,1053.74 1240.54,1001.41 1265.87,942.472 1291.13,878.172 1316.33,809.806 1341.49,738.686 1366.63,666.123 1391.77,593.421 1416.94,521.87 1442.16,452.75 1467.45,387.329 1492.81,326.863 1518.27,272.338 1543.81,224.436 1569.44,183.565 1595.13,149.884 1620.88,123.32 1646.67,103.593 1672.49,90.2492 1698.33,82.6941 1724.17,80.2304 1750.02,82.0991 1775.87,87.5166 1801.71,95.7083 1827.55,105.936 1853.39,117.517 1879.23,129.839 1905.07,142.369 1930.9,154.65 1956.75,166.307 1982.59,177.037 2008.44,186.606 2034.29,194.838 2060.14,201.61 2086,206.84 2111.86,210.478 2137.72,212.503 2163.58,212.909 2189.45,211.702 2215.31,208.893 2241.17,204.497 2267.03,198.526 2292.88,190.989 "></polyline>
<path clip-path="url(#clip350)" d="M2018.25 1173.91 L2282.24 1173.91 L2282.24 1070.23 L2018.25 1070.23  Z" fill="#ffffff" fill-rule="evenodd" fill-opacity="1"></path>
<polyline clip-path="url(#clip350)" style="stroke:#000000; stroke-linecap:round; stroke-linejoin:round; stroke-width:4; stroke-opacity:1; fill:none" points="2018.25,1173.91 2282.24,1173.91 2282.24,1070.23 2018.25,1070.23 2018.25,1173.91 "></polyline>
<polyline clip-path="url(#clip350)" style="stroke:#009af9; stroke-linecap:round; stroke-linejoin:round; stroke-width:4; stroke-opacity:1; fill:none" points="2041.76,1122.07 2182.79,1122.07 "></polyline>
<path clip-path="url(#clip350)" d="M2220.14 1141.76 Q2218.34 1146.39 2216.62 1147.8 Q2214.91 1149.21 2212.04 1149.21 L2208.64 1149.21 L2208.64 1145.65 L2211.14 1145.65 Q2212.9 1145.65 2213.87 1144.81 Q2214.84 1143.98 2216.02 1140.88 L2216.79 1138.93 L2206.3 1113.42 L2210.81 1113.42 L2218.92 1133.7 L2227.02 1113.42 L2231.53 1113.42 L2220.14 1141.76 Z" fill="#000000" fill-rule="nonzero" fill-opacity="1"></path><path clip-path="url(#clip350)" d="M2238.82 1135.41 L2246.46 1135.41 L2246.46 1109.05 L2238.15 1110.72 L2238.15 1106.46 L2246.42 1104.79 L2251.09 1104.79 L2251.09 1135.41 L2258.73 1135.41 L2258.73 1139.35 L2238.82 1139.35 L2238.82 1135.41 Z" fill="#000000" fill-rule="nonzero" fill-opacity="1"></path></svg>